<svg width="140" height="140" viewBox="0 0 140 140" fill="none" xmlns="http://www.w3.org/2000/svg">
<path d="M80.9375 126.875L76.5625 118.125H54.6875L50.3125 126.875H80.9375Z" fill="#686868"/>
<path d="M114.947 78.1572C116.807 74.733 117.881 70.9375 118.092 67.0464C118.302 63.1552 117.644 59.2659 116.164 55.6609C114.685 52.0558 112.421 48.8254 109.538 46.2041C106.654 43.5828 103.223 41.6363 99.4941 40.506C98.4534 37.0526 96.7106 33.8514 94.3749 31.1031C92.0392 28.3547 89.1609 26.1186 85.9205 24.5347C82.6801 22.9508 79.1474 22.0535 75.5439 21.8988C71.9404 21.7442 68.3439 22.3356 64.9797 23.636C60.2612 19.6665 54.2911 17.4931 48.125 17.5C47.4075 17.5 46.6944 17.5285 45.99 17.5854C49.5278 13.5799 54.2079 10.7545 59.4002 9.48972C64.5925 8.22489 70.0477 8.5813 75.0312 10.511C78.6679 7.45961 83.0643 5.45226 87.752 4.70291C92.4397 3.95356 97.2428 4.4903 101.649 6.25592C106.056 8.02153 109.901 10.9498 112.774 14.7287C115.648 18.5075 117.442 22.9953 117.965 27.7135C123.37 29.5897 128.014 33.1803 131.19 37.9388C134.366 42.6973 135.901 48.3632 135.56 54.0742C135.22 59.7851 133.023 65.2285 129.303 69.5759C125.584 73.9232 120.547 76.9365 114.958 78.1572H114.947Z" fill="#219653"/>
<path d="M91.875 91.875C98.1691 91.8743 104.253 89.6121 109.019 85.5007C113.785 81.3892 116.915 75.7023 117.838 69.4763C118.761 63.2503 117.417 56.8998 114.05 51.5821C110.683 46.2644 105.517 42.3336 99.4941 40.506C98.4535 37.0526 96.7107 33.8514 94.3749 31.1031C92.0392 28.3547 89.1609 26.1186 85.9205 24.5347C82.6801 22.9508 79.1474 22.0535 75.5439 21.8988C71.9405 21.7442 68.3439 22.3356 64.9797 23.636C61.3431 20.5846 56.9466 18.5773 52.259 17.8279C47.5713 17.0786 42.7681 17.6153 38.3615 19.3809C33.9549 21.1465 30.11 24.0748 27.2366 27.8537C24.3633 31.6325 22.5692 36.1203 22.0456 40.8385C16.1787 42.8646 11.22 46.9051 8.05086 52.242C4.88168 57.5789 3.70723 63.8666 4.73619 69.9876C5.76516 76.1087 8.93091 81.6668 13.6709 85.6741C18.4109 89.6815 24.4181 91.8786 30.625 91.875H91.875Z" fill="#6FCF97"/>
<path d="M100.625 56.875H30.625C28.2088 56.875 26.25 58.8338 26.25 61.25V113.75C26.25 116.166 28.2088 118.125 30.625 118.125H100.625C103.041 118.125 105 116.166 105 113.75V61.25C105 58.8338 103.041 56.875 100.625 56.875Z" fill="#939393"/>
<path d="M50.3125 126.875H80.9375C82.678 126.875 84.3472 127.566 85.5779 128.797C86.8086 130.028 87.5 131.697 87.5 133.438V135.625H43.75V133.438C43.75 131.697 44.4414 130.028 45.6721 128.797C46.9028 127.566 48.572 126.875 50.3125 126.875Z" fill="#474747"/>
<path d="M35 65.625H96.25V109.375H35V65.625Z" fill="#CCCCCC"/>
<path d="M35 65.625H87.5V102.812H35V65.625Z" fill="#F2F2F2"/>
<path d="M43.75 72.1875H48.125V85.3125H43.75V72.1875Z" fill="#939393"/>
<path d="M59.0625 85.3125H52.5C51.9198 85.3125 51.3634 85.082 50.9532 84.6718C50.543 84.2616 50.3125 83.7052 50.3125 83.125V74.375C50.3125 73.7948 50.543 73.2384 50.9532 72.8282C51.3634 72.418 51.9198 72.1875 52.5 72.1875H59.0625C59.6427 72.1875 60.1991 72.418 60.6093 72.8282C61.0195 73.2384 61.25 73.7948 61.25 74.375V83.125C61.25 83.7052 61.0195 84.2616 60.6093 84.6718C60.1991 85.082 59.6427 85.3125 59.0625 85.3125ZM54.6875 80.9375H56.875V76.5625H54.6875V80.9375Z" fill="#939393"/>
<path d="M78.75 85.3125H72.1875C71.6073 85.3125 71.0509 85.082 70.6407 84.6718C70.2305 84.2616 70 83.7052 70 83.125V74.375C70 73.7948 70.2305 73.2384 70.6407 72.8282C71.0509 72.418 71.6073 72.1875 72.1875 72.1875H78.75C79.3302 72.1875 79.8866 72.418 80.2968 72.8282C80.707 73.2384 80.9375 73.7948 80.9375 74.375V83.125C80.9375 83.7052 80.707 84.2616 80.2968 84.6718C79.8866 85.082 79.3302 85.3125 78.75 85.3125ZM74.375 80.9375H76.5625V76.5625H74.375V80.9375Z" fill="#939393"/>
<path d="M63.4375 72.1875H67.8125V85.3125H63.4375V72.1875Z" fill="#939393"/>
<path d="M83.125 72.1875H87.5V85.3125H83.125V72.1875Z" fill="#939393"/>
<path d="M43.75 89.6875H48.125V102.812H43.75V89.6875Z" fill="#939393"/>
<path d="M59.0625 102.812H52.5C51.9198 102.812 51.3634 102.582 50.9532 102.172C50.543 101.762 50.3125 101.205 50.3125 100.625V91.875C50.3125 91.2948 50.543 90.7384 50.9532 90.3282C51.3634 89.918 51.9198 89.6875 52.5 89.6875H59.0625C59.6427 89.6875 60.1991 89.918 60.6093 90.3282C61.0195 90.7384 61.25 91.2948 61.25 91.875V100.625C61.25 101.205 61.0195 101.762 60.6093 102.172C60.1991 102.582 59.6427 102.812 59.0625 102.812ZM54.6875 98.4375H56.875V94.0625H54.6875V98.4375Z" fill="#939393"/>
<path d="M78.75 102.812H72.1875C71.6073 102.812 71.0509 102.582 70.6407 102.172C70.2305 101.762 70 101.205 70 100.625V91.875C70 91.2948 70.2305 90.7384 70.6407 90.3282C71.0509 89.918 71.6073 89.6875 72.1875 89.6875H78.75C79.3302 89.6875 79.8866 89.918 80.2968 90.3282C80.707 90.7384 80.9375 91.2948 80.9375 91.875V100.625C80.9375 101.205 80.707 101.762 80.2968 102.172C79.8866 102.582 79.3302 102.812 78.75 102.812ZM74.375 98.4375H76.5625V94.0625H74.375V98.4375Z" fill="#939393"/>
<path d="M63.4375 89.6875H67.8125V102.812H63.4375V89.6875Z" fill="#939393"/>
<path d="M83.125 89.6875H87.5V102.812H83.125V89.6875Z" fill="#939393"/>
<path d="M137.812 52.5C137.808 46.8219 136.105 41.2751 132.921 36.5738C129.737 31.8724 125.218 28.2319 119.947 26.1209C119.171 21.263 117.146 16.6898 114.072 12.8488C110.998 9.00786 106.98 6.03063 102.41 4.20843C97.8404 2.38623 92.8759 1.78147 88.0023 2.45331C83.1288 3.12516 78.5131 5.0506 74.6069 8.04126C71.7131 7.06385 68.6794 6.56439 65.625 6.56251C61.7559 6.56894 57.9288 7.36541 54.3783 8.90311C50.8279 10.4408 47.6288 12.6873 44.9772 15.505C38.7942 16.1816 33.0052 18.872 28.5014 23.1618C23.9977 27.4517 21.0291 33.1032 20.0528 39.2459C14.4459 41.4878 9.69898 45.4577 6.50073 50.5797C3.30248 55.7017 1.8192 61.7094 2.26607 67.7313C2.71295 73.7533 5.06673 79.4763 8.98597 84.0701C12.9052 88.6639 18.1861 91.8897 24.0625 93.2794V113.75C24.0625 115.49 24.7539 117.16 25.9846 118.39C27.2153 119.621 28.8845 120.313 30.625 120.313H51.1481L48.8884 124.832C46.847 125.169 44.9909 126.218 43.6498 127.793C42.3086 129.369 41.5691 131.368 41.5625 133.438V135.625C41.5625 136.205 41.793 136.762 42.2032 137.172C42.6134 137.582 43.1698 137.813 43.75 137.813H87.5C88.0802 137.813 88.6366 137.582 89.0468 137.172C89.457 136.762 89.6875 136.205 89.6875 135.625V133.438C89.6809 131.368 88.9414 129.369 87.6003 127.793C86.2591 126.218 84.403 125.169 82.3616 124.832L80.1019 120.313H100.625C102.365 120.313 104.035 119.621 105.265 118.39C106.496 117.16 107.188 115.49 107.188 113.75V89.5738C110.95 87.1619 114.092 83.8984 116.36 80.0472C122.478 78.4727 127.901 74.9152 131.783 69.9311C135.664 64.947 137.785 58.8172 137.812 52.5ZM85.3125 133.438H45.9375C45.9375 132.277 46.3984 131.164 47.2189 130.344C48.0394 129.523 49.1522 129.063 50.3125 129.063H80.9375C82.0978 129.063 83.2106 129.523 84.0311 130.344C84.8516 131.164 85.3125 132.277 85.3125 133.438ZM77.3981 124.688H53.8519L56.0394 120.313H75.2106L77.3981 124.688ZM102.812 113.75C102.812 114.33 102.582 114.887 102.172 115.297C101.762 115.707 101.205 115.938 100.625 115.938H30.625C30.0448 115.938 29.4884 115.707 29.0782 115.297C28.668 114.887 28.4375 114.33 28.4375 113.75V61.25C28.4375 60.6698 28.668 60.1134 29.0782 59.7032C29.4884 59.293 30.0448 59.0625 30.625 59.0625H100.625C101.205 59.0625 101.762 59.293 102.172 59.7032C102.582 60.1134 102.812 60.6698 102.812 61.25V113.75ZM107.188 84.1334V61.25C107.188 59.5095 106.496 57.8403 105.265 56.6096C104.035 55.3789 102.365 54.6875 100.625 54.6875H30.625C28.8845 54.6875 27.2153 55.3789 25.9846 56.6096C24.7539 57.8403 24.0625 59.5095 24.0625 61.25V88.7688C19.1359 87.3771 14.7821 84.4492 11.635 80.4113C8.48794 76.3734 6.71189 71.4365 6.56544 66.3191C6.419 61.2018 7.9098 56.1714 10.8208 51.9601C13.7318 47.7489 17.911 44.5768 22.75 42.9056C23.1414 42.7702 23.4863 42.5264 23.7445 42.2027C24.0028 41.879 24.1639 41.4886 24.2091 41.0769C24.6891 36.7523 26.3337 32.639 28.9676 29.1756C31.6015 25.7121 35.1259 23.0284 39.1651 21.4105C43.2043 19.7926 47.6069 19.3011 51.9034 19.9885C56.1999 20.6759 60.2294 22.5164 63.5622 25.3138C63.8612 25.5641 64.2216 25.73 64.6062 25.7942C64.9908 25.8584 65.3856 25.8187 65.7497 25.6791C68.8332 24.4859 72.1301 23.943 75.4334 24.0842C78.7367 24.2254 81.9752 25.0478 84.9456 26.4997C87.9161 27.9517 90.5544 30.0019 92.6951 32.5217C94.8357 35.0414 96.4325 37.9764 97.3853 41.1425C97.4897 41.487 97.6775 41.8004 97.932 42.0549C98.1865 42.3094 98.4999 42.4972 98.8444 42.6016C103.009 43.8561 106.754 46.2179 109.681 49.4349C112.608 52.6518 114.606 56.6032 115.463 60.8671C116.319 65.1311 116.002 69.5476 114.544 73.6453C113.087 77.743 110.544 81.368 107.188 84.1334ZM118.84 74.6113C121.217 67.5219 120.7 59.7812 117.403 53.0706C114.105 46.3599 108.293 41.2214 101.229 38.7713C98.7835 31.7047 93.646 25.89 86.9345 22.5928C80.223 19.2956 72.4808 18.7829 65.3931 21.1663C61.3541 18.0842 56.5642 16.1386 51.52 15.5313C54.7691 13.2037 58.5425 11.7141 62.5054 11.1948C66.4682 10.6754 70.4981 11.1423 74.2372 12.5541C74.6013 12.6937 74.9961 12.7334 75.3807 12.6692C75.7653 12.605 76.1257 12.4391 76.4247 12.1888C79.7577 9.39156 83.7873 7.55121 88.0839 6.86389C92.3805 6.17656 96.7831 6.66803 100.822 8.2859C104.862 9.90377 108.386 12.5874 111.02 16.0507C113.655 19.514 115.3 23.6272 115.78 27.9519C115.825 28.3636 115.986 28.754 116.245 29.0777C116.503 29.4014 116.848 29.6452 117.239 29.7806C121.829 31.3644 125.832 34.3011 128.721 38.2043C131.61 42.1074 133.249 46.7938 133.422 51.6465C133.595 56.4992 132.295 61.2907 129.692 65.3899C127.089 69.4892 123.306 72.7041 118.84 74.6113Z" fill="black"/>
<path d="M96.25 63.4375H35C34.4198 63.4375 33.8634 63.668 33.4532 64.0782C33.043 64.4884 32.8125 65.0448 32.8125 65.625V109.375C32.8125 109.955 33.043 110.512 33.4532 110.922C33.8634 111.332 34.4198 111.562 35 111.562H96.25C96.8302 111.562 97.3866 111.332 97.7968 110.922C98.207 110.512 98.4375 109.955 98.4375 109.375V65.625C98.4375 65.0448 98.207 64.4884 97.7968 64.0782C97.3866 63.668 96.8302 63.4375 96.25 63.4375ZM94.0625 107.188H37.1875V67.8125H94.0625V107.188Z" fill="black"/>
<path d="M43.75 72.1875H48.125V85.3125H43.75V72.1875Z" fill="black"/>
<path d="M52.5 85.3125H59.0625C59.6427 85.3125 60.1991 85.082 60.6093 84.6718C61.0195 84.2616 61.25 83.7052 61.25 83.125V74.375C61.25 73.7948 61.0195 73.2384 60.6093 72.8282C60.1991 72.418 59.6427 72.1875 59.0625 72.1875H52.5C51.9198 72.1875 51.3634 72.418 50.9532 72.8282C50.543 73.2384 50.3125 73.7948 50.3125 74.375V83.125C50.3125 83.7052 50.543 84.2616 50.9532 84.6718C51.3634 85.082 51.9198 85.3125 52.5 85.3125ZM54.6875 76.5625H56.875V80.9375H54.6875V76.5625Z" fill="black"/>
<path d="M72.1875 85.3125H78.75C79.3302 85.3125 79.8866 85.082 80.2968 84.6718C80.707 84.2616 80.9375 83.7052 80.9375 83.125V74.375C80.9375 73.7948 80.707 73.2384 80.2968 72.8282C79.8866 72.418 79.3302 72.1875 78.75 72.1875H72.1875C71.6073 72.1875 71.0509 72.418 70.6407 72.8282C70.2305 73.2384 70 73.7948 70 74.375V83.125C70 83.7052 70.2305 84.2616 70.6407 84.6718C71.0509 85.082 71.6073 85.3125 72.1875 85.3125ZM74.375 76.5625H76.5625V80.9375H74.375V76.5625Z" fill="black"/>
<path d="M63.4375 72.1875H67.8125V85.3125H63.4375V72.1875Z" fill="black"/>
<path d="M83.125 72.1875H87.5V85.3125H83.125V72.1875Z" fill="black"/>
<path d="M43.75 89.6875H48.125V102.812H43.75V89.6875Z" fill="black"/>
<path d="M52.5 102.812H59.0625C59.6427 102.812 60.1991 102.582 60.6093 102.172C61.0195 101.762 61.25 101.205 61.25 100.625V91.875C61.25 91.2948 61.0195 90.7384 60.6093 90.3282C60.1991 89.918 59.6427 89.6875 59.0625 89.6875H52.5C51.9198 89.6875 51.3634 89.918 50.9532 90.3282C50.543 90.7384 50.3125 91.2948 50.3125 91.875V100.625C50.3125 101.205 50.543 101.762 50.9532 102.172C51.3634 102.582 51.9198 102.812 52.5 102.812ZM54.6875 94.0625H56.875V98.4375H54.6875V94.0625Z" fill="black"/>
<path d="M72.1875 102.812H78.75C79.3302 102.812 79.8866 102.582 80.2968 102.172C80.707 101.762 80.9375 101.205 80.9375 100.625V91.875C80.9375 91.2948 80.707 90.7384 80.2968 90.3282C79.8866 89.918 79.3302 89.6875 78.75 89.6875H72.1875C71.6073 89.6875 71.0509 89.918 70.6407 90.3282C70.2305 90.7384 70 91.2948 70 91.875V100.625C70 101.205 70.2305 101.762 70.6407 102.172C71.0509 102.582 71.6073 102.812 72.1875 102.812ZM74.375 94.0625H76.5625V98.4375H74.375V94.0625Z" fill="black"/>
<path d="M63.4375 89.6875H67.8125V102.812H63.4375V89.6875Z" fill="black"/>
<path d="M83.125 89.6875H87.5V102.812H83.125V89.6875Z" fill="black"/>
</svg>
