<svg width="76" height="86" viewBox="0 0 76 86" fill="none" xmlns="http://www.w3.org/2000/svg">
<path d="M58.0167 55.0628C57.6649 54.9457 57.3047 54.8227 56.9457 54.6945V49.4369C57.914 49.6296 58.4919 50.093 58.5402 50.1328C59 50.5254 59.6909 50.4745 60.088 50.0173C60.4872 49.5577 60.4382 48.8615 59.9787 48.4625C59.9122 48.4048 58.7852 47.4498 56.9459 47.2057V46.7711C56.9459 46.1623 56.4524 45.6689 55.8437 45.6689C55.2351 45.6689 54.7416 46.1625 54.7416 46.7711V47.2855C54.5554 47.3228 54.3658 47.3674 54.1721 47.4223C52.4776 47.9031 51.2276 49.2862 50.9102 51.0321C50.6299 52.5731 51.1636 54.0531 52.3029 54.8947C52.9184 55.3494 53.6865 55.7659 54.7416 56.2069V62.8543C53.7636 62.798 53.1156 62.5922 52.0286 61.9226C51.5103 61.6032 50.8314 61.7648 50.5122 62.283C50.193 62.8012 50.3542 63.4802 50.8726 63.7995C52.38 64.7282 53.4033 64.9948 54.7418 65.059V65.6265C54.7418 66.2352 55.2353 66.7286 55.8439 66.7286C56.4525 66.7286 56.946 66.2351 56.946 65.6265V64.9749C59.533 64.5029 61.1665 62.453 61.4875 60.4326C61.8734 58.0011 60.5113 55.8932 58.0167 55.0628ZM53.6123 53.1215C53.0651 52.7173 52.9779 51.981 53.0788 51.4266C53.2074 50.7191 53.7124 49.8604 54.7413 49.5536V53.7883C54.3133 53.5768 53.9278 53.3546 53.6123 53.1215ZM59.3099 60.0868C59.1393 61.161 58.3408 62.3046 56.9456 62.7147V57.028C57.0685 57.0697 57.1921 57.1116 57.3204 57.1544C58.7807 57.6406 59.5245 58.7367 59.3099 60.0868Z" fill="black"/>
<path d="M54.8645 8.23536C54.8645 7.13748 53.9713 6.24448 52.8736 6.24448H8.95573C7.85799 6.24448 6.96484 7.13763 6.96484 8.23536V11.206C6.96484 11.8147 7.45838 12.3081 8.06699 12.3081C8.6756 12.3081 9.16913 11.8146 9.16913 11.206V8.44877H52.6599V19.1116H9.16928V16.3593C9.16928 15.7505 8.67575 15.2571 8.06714 15.2571C7.45852 15.2571 6.96499 15.7506 6.96499 16.3593V19.3252C6.96499 20.4229 7.85814 21.3161 8.95588 21.3161H52.8736C53.9715 21.3161 54.8645 20.4229 54.8645 19.3252V8.23536Z" fill="black"/>
<path d="M16.4284 28.4134C16.4284 27.4136 15.6149 26.6003 14.6152 26.6003H9.16708C8.16723 26.6003 7.35388 27.4137 7.35388 28.4134V33.8614C7.35388 34.8613 8.16737 35.6748 9.16708 35.6748H14.6152C15.6151 35.6748 16.4284 34.8613 16.4284 33.8614V28.4134ZM14.224 33.4703H9.55817V28.8045H14.224V33.4703Z" fill="black"/>
<path d="M29.1108 28.4134C29.1108 27.4136 28.2973 26.6003 27.2975 26.6003H21.8495C20.8497 26.6003 20.0363 27.4137 20.0363 28.4134V33.8614C20.0363 34.8613 20.8498 35.6748 21.8495 35.6748H27.2975C28.2973 35.6748 29.1108 34.8613 29.1108 33.8614V28.4134ZM26.9064 33.4703H22.2406V28.8045H26.9064V33.4703Z" fill="black"/>
<path d="M34.5319 26.6003C33.532 26.6003 32.7185 27.4137 32.7185 28.4134V33.8614C32.7185 34.8613 33.532 35.6748 34.5319 35.6748H39.9798C40.9797 35.6748 41.793 34.8613 41.793 33.8614V28.4134C41.793 27.4136 40.9795 26.6003 39.9798 26.6003H34.5319ZM39.5887 33.4703H34.9229V28.8045H39.5887V33.4703Z" fill="black"/>
<path d="M52.6624 26.6003H47.2143C46.2145 26.6003 45.4011 27.4137 45.4011 28.4134V33.8614C45.4011 34.8613 46.2146 35.6748 47.2143 35.6748H52.6624C53.6623 35.6748 54.4756 34.8613 54.4756 33.8614V28.4134C54.4756 27.4136 53.6621 26.6003 52.6624 26.6003ZM52.2712 33.4703H47.6054V28.8045H52.2712V33.4703Z" fill="black"/>
<path d="M16.4284 41.8303C16.4284 40.8304 15.6149 40.0171 14.6152 40.0171H9.16708C8.16723 40.0171 7.35388 40.8306 7.35388 41.8303V47.2782C7.35388 48.2781 8.16737 49.0916 9.16708 49.0916H14.6152C15.6151 49.0916 16.4284 48.2781 16.4284 47.2782V41.8303ZM14.224 46.8871H9.55817V42.2213H14.224V46.8871Z" fill="black"/>
<path d="M29.1108 41.8303C29.1108 40.8304 28.2973 40.0171 27.2975 40.0171H21.8495C20.8497 40.0171 20.0363 40.8306 20.0363 41.8303V47.2782C20.0363 48.2781 20.8498 49.0916 21.8495 49.0916H27.2975C28.2973 49.0916 29.1108 48.2781 29.1108 47.2782V41.8303ZM26.9064 46.8871H22.2406V42.2213H26.9064V46.8871Z" fill="black"/>
<path d="M27.2975 53.4337H21.8495C20.8497 53.4337 20.0363 54.2471 20.0363 55.2469V60.6948C20.0363 61.6947 20.8498 62.5082 21.8495 62.5082H27.2975C28.2973 62.5082 29.1108 61.6947 29.1108 60.6948V55.2469C29.1108 54.2471 28.2973 53.4337 27.2975 53.4337ZM26.9064 60.3039H22.2406V55.6381H26.9064V60.3039Z" fill="black"/>
<path d="M55.9488 37.1478C50.3359 37.1478 45.2827 39.5882 41.7931 43.4632V41.8303C41.7931 40.8305 40.9796 40.017 39.9799 40.017H34.532C33.5321 40.017 32.7186 40.8305 32.7186 41.8303V47.2783C32.7186 48.2781 33.5321 49.0915 34.532 49.0915H38.274C37.7189 50.4671 37.3199 51.9219 37.0991 53.4336H34.532C33.5321 53.4336 32.7186 54.2471 32.7186 55.247V60.6949C32.7186 61.6948 33.5321 62.5081 34.532 62.5081H37.973C40.5827 69.9214 47.6545 75.2499 55.9488 75.2499C66.4536 75.2499 74.9999 66.7036 74.9999 56.1988C74.9999 45.6939 66.4536 37.1478 55.9488 37.1478ZM34.9229 46.8872V42.2214H39.5887V46.4476C39.5018 46.5928 39.4169 46.7395 39.3339 46.8872H34.9229ZM34.9229 60.304V55.6382H36.9066C36.9012 55.8244 36.8978 56.0112 36.8978 56.1989C36.8978 57.6079 37.053 58.9814 37.3446 60.304H34.9229ZM55.9488 73.0455C46.6595 73.0455 39.1021 65.488 39.1021 56.1988C39.1021 46.9095 46.6595 39.3521 55.9488 39.3521C65.238 39.3521 72.7955 46.9095 72.7955 56.1988C72.7955 65.488 65.2382 73.0455 55.9488 73.0455Z" fill="black"/>
<path d="M55.9488 41.5735C47.8845 41.5735 41.3236 48.1344 41.3236 56.1988C41.3236 64.2631 47.8845 70.824 55.9488 70.824C64.0132 70.824 70.574 64.2631 70.574 56.1988C70.574 48.1344 64.0132 41.5735 55.9488 41.5735ZM55.9488 68.6197C49.0999 68.6197 43.5279 63.0477 43.5279 56.1988C43.5279 49.3499 49.0999 43.7778 55.9488 43.7778C62.7977 43.7778 68.3698 49.3499 68.3698 56.1988C68.3698 63.0477 62.7977 68.6197 55.9488 68.6197Z" fill="black"/>
<path d="M14.6152 53.4337H9.16708C8.16723 53.4337 7.35388 54.2471 7.35388 55.2469V60.6948C7.35388 61.6947 8.16737 62.5082 9.16708 62.5082H14.6152C15.6151 62.5082 16.4284 61.6947 16.4284 60.6948V55.2469C16.4284 54.2471 15.6149 53.4337 14.6152 53.4337ZM14.224 60.3039H9.55817V55.6381H14.224V60.3039Z" fill="black"/>
<path d="M39.9747 69.8732H7.42945C5.09979 69.8732 3.20444 67.9778 3.20444 65.6481V6.42931C3.20444 4.09965 5.09979 2.20429 7.42945 2.20429H54.4002C56.7299 2.20429 58.6252 4.09965 58.6252 6.42931V33.48C58.6252 34.0888 59.1187 34.5822 59.7274 34.5822C60.336 34.5822 60.8295 34.0886 60.8295 33.48V6.42931C60.8295 2.88419 57.9453 0 54.4002 0H7.42945C3.88419 0 1 2.88419 1 6.42931V65.6481C1 69.1934 3.88419 72.0776 7.42931 72.0776H39.9747C40.5835 72.0776 41.0769 71.5841 41.0769 70.9754C41.0769 70.3668 40.5835 69.8732 39.9747 69.8732Z" fill="black"/>
</svg>
