<svg width="132" height="132" viewBox="0 0 132 132" fill="none" xmlns="http://www.w3.org/2000/svg">
<path d="M47.4375 107.25H88.6875C91.396 107.25 94.078 107.783 96.5803 108.82C99.0827 109.856 101.356 111.376 103.272 113.291C105.187 115.206 106.706 117.48 107.743 119.982C108.779 122.484 109.312 125.166 109.312 127.875H26.8125C26.8125 122.405 28.9855 117.159 32.8534 113.291C36.7214 109.423 41.9674 107.25 47.4375 107.25Z" fill="#F2C94C"/>
<path d="M96.9375 115.5V108.978C94.3366 107.838 91.5274 107.249 88.6875 107.25H47.4375C43.4254 107.251 39.5009 108.423 36.1445 110.621C32.7881 112.819 30.1457 115.948 28.5409 119.625H92.8125C93.9065 119.625 94.9557 119.19 95.7293 118.417C96.5029 117.643 96.9375 116.594 96.9375 115.5Z" fill="#F2C94C"/>
<path d="M76.3125 101.195C73.7491 102.468 70.9249 103.129 68.0625 103.125C65.2001 103.129 62.3759 102.468 59.8125 101.195V107.25C59.8125 109.438 60.6817 111.536 62.2289 113.084C63.776 114.631 65.8745 115.5 68.0625 115.5C70.2505 115.5 72.349 114.631 73.8961 113.084C75.4433 111.536 76.3125 109.438 76.3125 107.25V101.195Z" fill="#F2B9A1"/>
<path d="M86.625 74.25H90.75L92.5217 65.3957C92.7154 64.4259 92.8128 63.4394 92.8125 62.4504C92.8125 58.4688 91.2308 54.6502 88.4153 51.8347C85.5998 49.0192 81.7812 47.4375 77.7996 47.4375H73.2188C72.3982 47.4375 71.6113 47.1116 71.0311 46.5314C70.4509 45.9512 70.125 45.1643 70.125 44.3438C70.125 43.5232 69.7991 42.7363 69.2189 42.1561C68.6387 41.5759 67.8518 41.25 67.0312 41.25H60.6375C56.0426 41.25 51.6359 43.0753 48.3869 46.3244C45.1378 49.5734 43.3125 53.9801 43.3125 58.575C43.3124 59.3948 43.3703 60.2136 43.4857 61.0252L45.375 74.25H49.5V72.3339C49.5 69.5994 50.5862 66.9769 52.5195 65.043L58.3543 59.2082C58.8167 58.7459 59.3655 58.3791 59.9696 58.1289C60.5737 57.8787 61.2212 57.75 61.875 57.75C62.5288 57.75 63.1763 57.8787 63.7804 58.1289C64.3845 58.3791 64.9333 58.7459 65.3957 59.2082L72.0411 65.8536C72.6273 66.4387 73.4217 66.7674 74.25 66.7674C75.0783 66.7674 75.8727 66.4387 76.4589 65.8536C76.9907 65.3218 77.6964 64.9996 78.4465 64.9462C79.1967 64.8928 79.9409 65.1117 80.5427 65.5627L84.975 68.8875C85.4873 69.2717 85.9031 69.77 86.1895 70.3427C86.4759 70.9155 86.625 71.5471 86.625 72.1875V74.25Z" fill="#976947"/>
<path d="M86.625 72.1875V84.5625C86.625 89.4856 84.6693 94.207 81.1882 97.6882C77.707 101.169 72.9856 103.125 68.0625 103.125C63.1394 103.125 58.418 101.169 54.9368 97.6882C51.4557 94.207 49.5 89.4856 49.5 84.5625V72.3339C49.5 69.5994 50.5862 66.9769 52.5195 65.043L58.3543 59.2082C58.8167 58.7459 59.3655 58.3791 59.9696 58.1289C60.5737 57.8787 61.2212 57.75 61.875 57.75C62.5288 57.75 63.1763 57.8787 63.7804 58.1289C64.3845 58.3791 64.9333 58.7459 65.3957 59.2082L72.0411 65.8536C72.6273 66.4387 73.4217 66.7674 74.25 66.7674C75.0783 66.7674 75.8727 66.4387 76.4589 65.8536C76.9907 65.3218 77.6964 64.9996 78.4466 64.9462C79.1967 64.8928 79.9409 65.1117 80.5427 65.5628L84.975 68.8875C85.4873 69.2717 85.9031 69.77 86.1895 70.3427C86.4759 70.9155 86.625 71.5471 86.625 72.1875Z" fill="#FBE1CA"/>
<path d="M49.5 74.25H45.375C43.734 74.25 42.1602 74.9019 40.9998 76.0623C39.8394 77.2227 39.1875 78.7965 39.1875 80.4375C39.1875 82.0785 39.8394 83.6523 40.9998 84.8127C42.1602 85.9731 43.734 86.625 45.375 86.625H49.5" fill="#F2B9A1"/>
<path d="M86.625 74.25H90.75C92.391 74.25 93.9648 74.9019 95.1252 76.0623C96.2856 77.2227 96.9375 78.7965 96.9375 80.4375C96.9375 82.0785 96.2856 83.6523 95.1252 84.8127C93.9648 85.9731 92.391 86.625 90.75 86.625H86.625" fill="#F2B9A1"/>
<path d="M49.5 30.9375V22.6875H44.8986C44.4347 20.6517 43.6285 18.7094 42.5143 16.9434L45.771 13.6868L39.9383 7.854L36.6816 11.1107C34.9156 9.99654 32.9733 9.19034 30.9375 8.72644V4.125H22.6875V8.72644C20.6517 9.19034 18.7094 9.99654 16.9434 11.1107L13.6868 7.854L7.854 13.6868L11.1107 16.9434C9.99654 18.7094 9.19034 20.6517 8.72644 22.6875H4.125V30.9375H8.72644C9.19034 32.9733 9.99654 34.9156 11.1107 36.6816L7.854 39.9383L13.6868 45.771L16.9434 42.5143C18.7094 43.6285 20.6517 44.4347 22.6875 44.8986V49.5H30.9375V44.8986C32.9733 44.4347 34.9156 43.6285 36.6816 42.5143L39.9383 45.771L45.771 39.9383L42.5143 36.6816C43.6285 34.9156 44.4347 32.9733 44.8986 30.9375H49.5ZM26.8125 37.125C24.7729 37.125 22.7791 36.5202 21.0832 35.387C19.3873 34.2539 18.0655 32.6433 17.285 30.7589C16.5045 28.8746 16.3002 26.8011 16.6982 24.8006C17.0961 22.8002 18.0782 20.9627 19.5205 19.5205C20.9627 18.0782 22.8002 17.0961 24.8006 16.6982C26.8011 16.3002 28.8746 16.5045 30.7589 17.285C32.6433 18.0655 34.2539 19.3873 35.387 21.0832C36.5202 22.7791 37.125 24.7729 37.125 26.8125C37.125 29.5475 36.0385 32.1706 34.1045 34.1045C32.1706 36.0385 29.5475 37.125 26.8125 37.125Z" fill="#474747"/>
<path d="M105.188 49.5C117.717 49.5 127.875 39.3425 127.875 26.8125C127.875 14.2825 117.717 4.125 105.188 4.125C92.6575 4.125 82.5 14.2825 82.5 26.8125C82.5 39.3425 92.6575 49.5 105.188 49.5Z" fill="#F2C94C"/>
<path d="M105.188 51.5625C98.1337 51.5625 92.8125 40.9221 92.8125 26.8125C92.8125 12.7029 98.1337 2.0625 105.188 2.0625C112.241 2.0625 117.562 12.7029 117.562 26.8125C117.562 40.9221 112.241 51.5625 105.188 51.5625ZM105.188 6.1875C101.293 6.1875 96.9375 15.0068 96.9375 26.8125C96.9375 38.6183 101.293 47.4375 105.188 47.4375C109.081 47.4375 113.438 38.6183 113.438 26.8125C113.438 15.0068 109.081 6.1875 105.188 6.1875Z" fill="#F2C94C"/>
<path d="M86.4786 39.1875L86.2599 39.3091C87.0352 40.479 87.9169 41.5747 88.8937 42.5823C93.9843 40.1905 99.5653 39.0277 105.187 39.1875C110.809 39.0249 116.391 40.1864 121.481 42.5782C122.456 41.5749 123.336 40.4832 124.109 39.3174L123.917 39.1978C118.108 36.3014 111.676 34.8811 105.187 35.0625C98.7071 34.8804 92.2816 36.2972 86.4786 39.1875Z" fill="#F2C94C"/>
<path d="M105.187 14.4374C99.5654 14.5989 93.9841 13.4368 88.8937 11.0446C87.9169 12.0495 87.0359 13.1433 86.262 14.3116L86.4579 14.4374C92.2674 17.3303 98.7002 18.747 105.187 18.5625C111.724 18.7426 118.202 17.2953 124.041 14.3508L124.109 14.3054C123.335 13.1394 122.455 12.0472 121.481 11.0426C116.391 13.4344 110.81 14.5972 105.187 14.4374Z" fill="#F2C94C"/>
<path d="M82.5 26.8125C82.5 27.5096 82.5433 28.1944 82.6031 28.875H127.772C127.832 28.1944 127.875 27.5096 127.875 26.8125C127.875 26.1154 127.832 25.4306 127.772 24.75H82.6031C82.5433 25.4306 82.5 26.1154 82.5 26.8125Z" fill="#F2C94C"/>
<path d="M76.3125 24.75H55.6875V28.875H76.3125V24.75Z" fill="#F0AE42"/>
<path d="M88.6875 105.188H78.375V102.397C80.8985 100.939 83.085 98.9638 84.7912 96.601C86.4974 94.2383 87.6847 91.5415 88.275 88.6875H90.75C92.7194 88.6883 94.6237 87.9827 96.1171 86.6989C97.6104 85.415 98.5937 83.638 98.8883 81.6908C99.1828 79.7436 98.7692 77.7553 97.7224 76.0872C96.6756 74.4191 95.0652 73.1817 93.1838 72.6L94.5429 65.7937C95.0382 63.3168 94.9777 60.7608 94.3657 58.3101C93.7537 55.8594 92.6054 53.575 91.0037 51.6217C89.4021 49.6685 87.3869 48.095 85.1035 47.0148C82.8202 45.9345 80.3256 45.3745 77.7996 45.375H73.2188C72.9452 45.375 72.6829 45.2664 72.4895 45.073C72.2962 44.8796 72.1875 44.6173 72.1875 44.3438C72.1875 42.9762 71.6443 41.6647 70.6773 40.6977C69.7103 39.7307 68.3988 39.1875 67.0312 39.1875H60.6375C57.86 39.189 55.1153 39.7872 52.5892 40.9417C50.063 42.0962 47.8144 43.78 45.9956 45.879C44.1768 47.9781 42.8302 50.4435 42.047 53.1082C41.2639 55.773 41.0624 58.5749 41.4563 61.3243L43.0609 72.5629C41.1595 73.1182 39.5224 74.3409 38.4501 76.0064C37.3778 77.6718 36.9424 79.6682 37.2237 81.629C37.5051 83.5897 38.4845 85.383 39.9819 86.6797C41.4793 87.9764 43.3942 88.6893 45.375 88.6875H47.85C48.4403 91.5415 49.6276 94.2383 51.3338 96.601C53.04 98.9638 55.2265 100.939 57.75 102.397V105.188H47.4375C41.4226 105.195 35.656 107.587 31.4029 111.84C27.1497 116.094 24.7571 121.86 24.75 127.875C24.75 128.422 24.9673 128.947 25.3541 129.333C25.7409 129.72 26.2655 129.938 26.8125 129.938H109.312C109.86 129.938 110.384 129.72 110.771 129.333C111.158 128.947 111.375 128.422 111.375 127.875C111.368 121.86 108.975 116.094 104.722 111.84C100.469 107.587 94.7024 105.195 88.6875 105.188ZM94.875 80.4375C94.875 81.5315 94.4404 82.5807 93.6668 83.3543C92.8932 84.1279 91.844 84.5625 90.75 84.5625H88.6875V76.3125H90.75C91.844 76.3125 92.8932 76.7471 93.6668 77.5207C94.4404 78.2943 94.875 79.3435 94.875 80.4375ZM45.375 84.5625C44.281 84.5625 43.2318 84.1279 42.4582 83.3543C41.6846 82.5807 41.25 81.5315 41.25 80.4375C41.25 79.3435 41.6846 78.2943 42.4582 77.5207C43.2318 76.7471 44.281 76.3125 45.375 76.3125H47.4375V84.5625H45.375ZM47.4375 72.1875H47.157L45.5214 60.7406C45.422 60.0231 45.373 59.2994 45.375 58.575C45.381 54.529 46.9909 50.6504 49.8519 47.7894C52.7129 44.9284 56.5915 43.3185 60.6375 43.3125H67.0312C67.3048 43.3125 67.5671 43.4211 67.7605 43.6145C67.9538 43.8079 68.0625 44.0702 68.0625 44.3438C68.0625 45.0209 68.1959 45.6914 68.455 46.317C68.7141 46.9425 69.0939 47.511 69.5727 47.9898C70.0515 48.4686 70.62 48.8484 71.2455 49.1075C71.8711 49.3666 72.5416 49.5 73.2188 49.5H77.7996C79.7156 49.4997 81.6079 49.9246 83.3399 50.7441C85.0718 51.5636 86.6003 52.7573 87.8151 54.239C89.0299 55.7208 89.9007 57.4537 90.3647 59.3127C90.8287 61.1717 90.8744 63.1106 90.4984 64.9894L89.0588 72.1875H88.6875C88.6853 71.2273 88.4606 70.2807 88.0312 69.4219C87.6018 68.5631 86.9793 67.8154 86.2125 67.2375L81.7802 63.9128C80.779 63.1697 79.5448 62.8098 78.3011 62.8983C77.0574 62.9868 75.8866 63.5179 75.0007 64.3954C74.801 64.5934 74.5312 64.7045 74.25 64.7045C73.9688 64.7045 73.699 64.5934 73.4993 64.3954L66.8539 57.75C65.5116 56.4714 63.7288 55.7582 61.875 55.7582C60.0212 55.7582 58.2384 56.4714 56.8961 57.75L51.0613 63.5848C48.7692 65.8643 47.4673 68.955 47.4375 72.1875ZM51.5625 84.5625V72.3339C51.5595 71.2503 51.7714 70.1769 52.186 69.1757C52.6006 68.1745 53.2095 67.2655 53.9777 66.5012L59.8125 60.6664C60.3597 60.1198 61.1015 59.8127 61.875 59.8127C62.6485 59.8127 63.3903 60.1198 63.9375 60.6664L70.5829 67.3118C71.5708 68.2548 72.8842 68.781 74.25 68.781C75.6158 68.781 76.9292 68.2548 77.9171 67.3118C78.0989 67.1329 78.3385 67.0247 78.5929 67.0066C78.8473 66.9884 79.0998 67.0615 79.3052 67.2128L83.7375 70.5375C83.9937 70.7296 84.2016 70.9787 84.3448 71.2651C84.488 71.5515 84.5625 71.8673 84.5625 72.1875V84.5625C84.5625 88.9386 82.8241 93.1354 79.7298 96.2298C76.6354 99.3241 72.4386 101.062 68.0625 101.062C63.6864 101.062 59.4896 99.3241 56.3952 96.2298C53.3009 93.1354 51.5625 88.9386 51.5625 84.5625ZM68.0625 105.188C70.1615 105.189 72.2482 104.868 74.25 104.237V107.25C74.25 108.891 73.5981 110.465 72.4377 111.625C71.2773 112.786 69.7035 113.438 68.0625 113.438C66.4215 113.438 64.8477 112.786 63.6873 111.625C62.5269 110.465 61.875 108.891 61.875 107.25V104.237C63.8768 104.868 65.9635 105.189 68.0625 105.188ZM28.9884 125.812C29.5015 121.277 31.6653 117.089 35.0677 114.046C38.47 111.003 42.873 109.318 47.4375 109.312H57.9562C58.4296 111.644 59.6944 113.74 61.5362 115.245C63.3781 116.75 65.6837 117.573 68.0625 117.573C70.4413 117.573 72.7469 116.75 74.5888 115.245C76.4306 113.74 77.6954 111.644 78.1688 109.312H88.6875C93.252 109.318 97.655 111.003 101.057 114.046C104.46 117.089 106.624 121.277 107.137 125.812H28.9884Z" fill="black"/>
<path d="M33 49.5V46.4764C34.1518 46.113 35.2692 45.6485 36.3392 45.0883L38.4801 47.2313C38.8668 47.6179 39.3913 47.8351 39.9383 47.8351C40.4852 47.8351 41.0097 47.6179 41.3964 47.2313L47.2313 41.3964C47.6179 41.0097 47.8351 40.4852 47.8351 39.9383C47.8351 39.3913 47.6179 38.8668 47.2313 38.4801L45.0924 36.3392C45.6512 35.269 46.1143 34.1516 46.4764 33H49.5C50.047 33 50.5716 32.7827 50.9584 32.3959C51.3452 32.0091 51.5625 31.4845 51.5625 30.9375V22.6875C51.5625 22.1405 51.3452 21.6159 50.9584 21.2291C50.5716 20.8423 50.047 20.625 49.5 20.625H46.4764C46.1136 19.4733 45.6498 18.3559 45.0904 17.2858L47.2313 15.1449C47.6179 14.7582 47.8351 14.2337 47.8351 13.6868C47.8351 13.1398 47.6179 12.6153 47.2313 12.2286L41.3964 6.39375C41.0097 6.00709 40.4852 5.78988 39.9383 5.78988C39.3913 5.78988 38.8668 6.00709 38.4801 6.39375L36.3392 8.53463C35.2691 7.9752 34.1517 7.5114 33 7.14863V4.125C33 3.57799 32.7827 3.05339 32.3959 2.66659C32.0091 2.2798 31.4845 2.0625 30.9375 2.0625H22.6875C22.1405 2.0625 21.6159 2.2798 21.2291 2.66659C20.8423 3.05339 20.625 3.57799 20.625 4.125V7.14863C19.4733 7.5114 18.3559 7.9752 17.2858 8.53463L15.1449 6.39375C14.7582 6.00709 14.2337 5.78988 13.6868 5.78988C13.1398 5.78988 12.6153 6.00709 12.2286 6.39375L6.39375 12.2286C6.00709 12.6153 5.78988 13.1398 5.78988 13.6868C5.78988 14.2337 6.00709 14.7582 6.39375 15.1449L8.53463 17.2858C7.9752 18.3559 7.5114 19.4733 7.14863 20.625H4.125C3.57799 20.625 3.05339 20.8423 2.66659 21.2291C2.2798 21.6159 2.0625 22.1405 2.0625 22.6875V30.9375C2.0625 31.4845 2.2798 32.0091 2.66659 32.3959C3.05339 32.7827 3.57799 33 4.125 33H7.14863C7.5114 34.1517 7.9752 35.2691 8.53463 36.3392L6.39375 38.4801C6.00709 38.8668 5.78988 39.3913 5.78988 39.9383C5.78988 40.4852 6.00709 41.0097 6.39375 41.3964L12.2286 47.2313C12.6153 47.6179 13.1398 47.8351 13.6868 47.8351C14.2337 47.8351 14.7582 47.6179 15.1449 47.2313L17.2858 45.0904C18.3558 45.6499 19.4733 46.1137 20.625 46.4764V49.5C20.625 50.047 20.8423 50.5716 21.2291 50.9584C21.6159 51.3452 22.1405 51.5625 22.6875 51.5625H30.9375C31.4845 51.5625 32.0091 51.3452 32.3959 50.9584C32.7827 50.5716 33 50.047 33 49.5ZM28.875 44.8986V47.4375H24.75V44.8986C24.7499 44.4309 24.5908 43.9771 24.2988 43.6117C24.0069 43.2463 23.5994 42.991 23.1433 42.8876C21.3354 42.4757 19.6106 41.7594 18.0428 40.7694C17.6471 40.5202 17.1785 40.4129 16.7138 40.465C16.2491 40.5171 15.8159 40.7255 15.4852 41.0561L13.6868 42.8546L10.7704 39.9383L12.5689 38.1398C12.9 37.8089 13.1088 37.3754 13.1609 36.9102C13.213 36.4451 13.1053 35.976 12.8556 35.5802C11.865 34.0126 11.1487 32.2878 10.7374 30.4796C10.6335 30.0235 10.3777 29.6163 10.012 29.3247C9.64617 29.0331 9.19214 28.8746 8.72438 28.875H6.1875V24.75H8.72438C9.19214 24.7504 9.64617 24.5919 10.012 24.3003C10.3777 24.0087 10.6335 23.6015 10.7374 23.1454C11.1487 21.3372 11.865 19.6124 12.8556 18.0448C13.1053 17.649 13.213 17.1799 13.1609 16.7148C13.1088 16.2496 12.9 15.8161 12.5689 15.4852L10.7704 13.6868L13.6868 10.7704L15.4852 12.5689C15.8161 12.9 16.2496 13.1088 16.7148 13.1609C17.1799 13.213 17.649 13.1053 18.0448 12.8556C19.6124 11.865 21.3372 11.1487 23.1454 10.7374C23.6015 10.6335 24.0087 10.3777 24.3003 10.012C24.5919 9.64617 24.7504 9.19214 24.75 8.72438V6.1875H28.875V8.72438C28.8746 9.19214 29.0331 9.64617 29.3247 10.012C29.6163 10.3777 30.0235 10.6335 30.4796 10.7374C32.2878 11.1487 34.0126 11.865 35.5802 12.8556C35.976 13.1053 36.4451 13.213 36.9102 13.1609C37.3754 13.1088 37.8089 12.9 38.1398 12.5689L39.9383 10.7704L42.8546 13.6868L41.0561 15.4852C40.725 15.8161 40.5162 16.2496 40.4641 16.7148C40.412 17.1799 40.5197 17.649 40.7694 18.0448C41.76 19.6124 42.4763 21.3372 42.8876 23.1454C42.9915 23.6015 43.2473 24.0087 43.6131 24.3003C43.9788 24.5919 44.4329 24.7504 44.9006 24.75H47.4375V28.875H44.9006C44.4329 28.8746 43.9788 29.0331 43.6131 29.3247C43.2473 29.6163 42.9915 30.0235 42.8876 30.4796C42.4763 32.2878 41.76 34.0126 40.7694 35.5802C40.5197 35.976 40.412 36.4451 40.4641 36.9102C40.5162 37.3754 40.725 37.8089 41.0561 38.1398L42.8546 39.9383L39.9383 42.8546L38.1398 41.0561C37.8091 40.7255 37.3759 40.5171 36.9112 40.465C36.4465 40.4129 35.9779 40.5202 35.5823 40.7694C34.0144 41.7594 32.2896 42.4757 30.4817 42.8876C30.0256 42.991 29.6181 43.2463 29.3262 43.6117C29.0342 43.9771 28.8751 44.4309 28.875 44.8986Z" fill="black"/>
<path d="M26.8125 14.4375C24.365 14.4375 21.9724 15.1633 19.9373 16.5231C17.9023 17.8828 16.3161 19.8156 15.3795 22.0768C14.4429 24.338 14.1978 26.8262 14.6753 29.2267C15.1528 31.6273 16.3314 33.8323 18.0621 35.5629C19.7927 37.2936 21.9977 38.4722 24.3983 38.9497C26.7988 39.4272 29.287 39.1821 31.5482 38.2455C33.8094 37.3089 35.7422 35.7227 37.1019 33.6877C38.4617 31.6526 39.1875 29.26 39.1875 26.8125C39.1842 23.5314 37.8794 20.3857 35.5593 18.0657C33.2393 15.7456 30.0935 14.4408 26.8125 14.4375ZM26.8125 35.0625C25.1808 35.0625 23.5858 34.5786 22.229 33.6721C20.8723 32.7656 19.8149 31.4771 19.1905 29.9696C18.5661 28.4621 18.4027 26.8033 18.721 25.203C19.0394 23.6027 19.8251 22.1326 20.9789 20.9789C22.1327 19.8251 23.6027 19.0393 25.203 18.721C26.8034 18.4027 28.4621 18.5661 29.9696 19.1905C31.4771 19.8149 32.7656 20.8723 33.6721 22.229C34.5786 23.5857 35.0625 25.1808 35.0625 26.8125C35.0625 29.0005 34.1933 31.099 32.6461 32.6461C31.099 34.1933 29.0005 35.0625 26.8125 35.0625Z" fill="black"/>
<path d="M105.187 2.0625C100.292 2.0625 95.5072 3.51406 91.4371 6.23363C87.367 8.95319 84.1947 12.8186 82.3215 17.3411C80.4482 21.8636 79.9581 26.84 80.9131 31.641C81.868 36.442 84.2253 40.852 87.6866 44.3134C91.1479 47.7747 95.558 50.1319 100.359 51.0869C105.16 52.0419 110.136 51.5518 114.659 49.6785C119.181 47.8052 123.047 44.633 125.766 40.5629C128.486 36.4927 129.937 31.7076 129.937 26.8125C129.93 20.2506 127.321 13.9594 122.681 9.31945C118.041 4.67946 111.749 2.0696 105.187 2.0625ZM111.497 14.0044C109.406 14.2918 107.298 14.4365 105.187 14.4375C103.077 14.4365 100.969 14.2918 98.8783 14.0044C100.508 9.18431 102.919 6.1875 105.187 6.1875C107.456 6.1875 109.867 9.18431 111.497 14.0044ZM113.31 7.86019C115.595 8.84523 117.683 10.235 119.474 11.9625C118.225 12.4648 116.942 12.8783 115.634 13.2C115.061 11.339 114.281 9.54799 113.31 7.86019ZM96.9849 24.75C97.0816 22.487 97.3575 20.2353 97.8099 18.0159C100.252 18.3798 102.718 18.5625 105.187 18.5625C107.658 18.5627 110.125 18.38 112.569 18.0159C113.022 20.2353 113.297 22.487 113.394 24.75H96.9849ZM113.39 28.875C113.293 31.138 113.018 33.3897 112.565 35.6091C107.671 34.8803 102.696 34.8803 97.8017 35.6091C97.3492 33.3897 97.0734 31.138 96.9767 28.875H113.39ZM94.7409 13.2103C93.4333 12.8887 92.15 12.4751 90.9006 11.9728C92.691 10.2424 94.7795 8.84978 97.0654 7.86225C96.0935 9.55266 95.3139 11.3465 94.7409 13.2103ZM93.7097 17.1971C93.2291 19.6886 92.9456 22.214 92.862 24.75H84.6677C85.0046 21.3499 86.1873 18.0883 88.1079 15.2625C89.9137 16.0804 91.7918 16.7281 93.7179 17.1971H93.7097ZM92.862 28.875C92.9483 31.4112 93.2345 33.9367 93.7179 36.4279C91.7919 36.8963 89.9138 37.5433 88.1079 38.3604C86.1876 35.5352 85.0049 32.2743 84.6677 28.875H92.862ZM94.7409 40.4147C95.3137 42.2792 96.0934 44.0737 97.0654 45.7648C94.7802 44.7798 92.6917 43.39 90.9006 41.6625C92.15 41.1602 93.4333 40.7467 94.7409 40.425V40.4147ZM98.8783 39.6206C103.065 39.0431 107.31 39.0431 111.497 39.6206C109.867 44.4407 107.456 47.4375 105.187 47.4375C102.919 47.4375 100.508 44.4407 98.8783 39.6206ZM115.634 40.4147C116.942 40.7363 118.225 41.1499 119.474 41.6522C117.684 43.3826 115.595 44.7752 113.31 45.7627C114.281 44.0756 115.06 42.2852 115.634 40.425V40.4147ZM116.665 36.4279C117.146 33.9364 117.429 31.411 117.513 28.875H125.707C125.37 32.2751 124.188 35.5367 122.267 38.3625C120.461 37.5446 118.583 36.8969 116.657 36.4279H116.665ZM117.513 24.75C117.427 22.2138 117.14 19.6883 116.657 17.1971C118.583 16.7287 120.461 16.0817 122.267 15.2646C124.187 18.0898 125.37 21.3506 125.707 24.75H117.513Z" fill="black"/>
<path d="M76.3125 24.75H55.6875V28.875H76.3125V24.75Z" fill="black"/>
</svg>
