<svg width="148" height="148" viewBox="0 0 148 148" fill="none" xmlns="http://www.w3.org/2000/svg">
<path d="M39.3125 74H85.5625C89.9398 73.9905 94.1719 72.4291 97.5065 69.5935C100.841 66.7579 103.062 62.8317 103.775 58.5129C104.488 54.1941 103.646 49.7624 101.4 46.0055C99.1535 42.2487 95.6476 39.4101 91.5056 37.9944C89.9494 33.3881 86.6395 29.5813 82.2941 27.4002C77.9487 25.219 72.9185 24.8395 68.2951 26.344C66.0293 23.1382 62.8026 20.7363 59.0815 19.4856C55.3604 18.2349 51.338 18.2003 47.596 19.3868C43.854 20.5733 40.5864 22.9194 38.2658 26.0857C35.9453 29.252 34.6921 33.0744 34.6875 37C34.6875 37.2012 34.7106 37.3978 34.7176 37.5989C30.3704 38.7327 26.5844 41.4095 24.0661 45.1299C21.5478 48.8503 20.4693 53.3599 21.0319 57.817C21.5945 62.2742 23.7598 66.3744 27.1237 69.3522C30.4875 72.33 34.82 73.9821 39.3125 74Z" fill="#ECB4B6"/>
<path d="M103.48 60.125C104.643 55.606 104.055 50.8145 101.835 46.7105C99.614 42.6064 95.9246 39.4931 91.5056 37.9944C89.9494 33.3881 86.6395 29.5813 82.2941 27.4002C77.9487 25.219 72.9185 24.8395 68.2951 26.344C65.9907 23.0803 62.6947 20.6472 58.897 19.4065C61.1674 16.1755 64.4142 13.758 68.1605 12.5092C71.9067 11.2605 75.9547 11.2464 79.7096 12.469C81.976 9.26524 85.2024 6.86518 88.9226 5.61577C92.6428 4.36636 96.6639 4.33232 100.405 5.51858C104.145 6.70484 107.412 9.04994 109.732 12.2149C112.053 15.3798 113.307 19.2006 113.312 23.125C113.312 23.3262 113.289 23.5228 113.282 23.7239C117.63 24.8577 121.416 27.5346 123.934 31.2549C126.452 34.9753 127.531 39.4849 126.968 43.942C126.405 48.3992 124.24 52.4994 120.876 55.4772C117.512 58.455 113.18 60.1071 108.687 60.125H103.48Z" fill="#ED1C24"/>
<path d="M30.0625 129.5V74C30.0625 72.7734 30.5498 71.597 31.4171 70.7296C32.2845 69.8623 33.4609 69.375 34.6875 69.375H113.312C114.539 69.375 115.716 69.8623 116.583 70.7296C117.45 71.597 117.938 72.7734 117.938 74V129.5H30.0625Z" fill="#939393"/>
<path d="M108.688 78.625H39.3125V129.5H108.688V78.625Z" fill="#CCCCCC"/>
<path d="M99.4375 115.625V78.625H39.3125V120.25H94.8125C96.0391 120.25 97.2155 119.763 98.0829 118.895C98.9502 118.028 99.4375 116.852 99.4375 115.625Z" fill="#F2F2F2"/>
<path d="M25.4375 129.5H122.562C123.789 129.5 124.966 129.987 125.833 130.855C126.7 131.722 127.188 132.898 127.188 134.125C127.188 136.578 126.213 138.931 124.478 140.666C122.744 142.4 120.391 143.375 117.938 143.375H30.0625C27.6092 143.375 25.2565 142.4 23.5218 140.666C21.7871 138.931 20.8125 136.578 20.8125 134.125C20.8125 132.898 21.2998 131.722 22.1671 130.855C23.0345 129.987 24.2109 129.5 25.4375 129.5Z" fill="#686868"/>
<path d="M99.4375 71.6875V62.4375H94.2783C93.7582 60.1549 92.8543 57.9772 91.6051 55.9972L95.2565 52.3457L88.7167 45.806L85.0653 49.4574C83.0853 48.2082 80.9076 47.3043 78.625 46.7842V41.625H69.375V46.7842C67.0924 47.3043 64.9147 48.2082 62.9347 49.4574L59.2832 45.806L52.7435 52.3457L56.3949 55.9972C55.1457 57.9772 54.2418 60.1549 53.7217 62.4375H48.5625V71.6875H53.7217C54.2418 73.9701 55.1457 76.1478 56.3949 78.1278L52.7435 81.7792L59.2832 88.319L62.9347 84.6676C64.9147 85.9168 67.0924 86.8207 69.375 87.3408V92.5H78.625V87.3408C80.9076 86.8207 83.0853 85.9168 85.0653 84.6676L88.7167 88.319L95.2565 81.7792L91.6051 78.1278C92.8543 76.1478 93.7582 73.9701 94.2783 71.6875H99.4375Z" fill="white"/>
<path d="M74 78.625C80.3858 78.625 85.5625 73.4483 85.5625 67.0625C85.5625 60.6767 80.3858 55.5 74 55.5C67.6142 55.5 62.4375 60.6767 62.4375 67.0625C62.4375 73.4483 67.6142 78.625 74 78.625Z" fill="#F2F2F2"/>
<path d="M138.75 113.312H124.875V108.688H138.75C139.363 108.688 139.952 108.444 140.385 108.01C140.819 107.577 141.062 106.988 141.062 106.375V46.25C141.062 45.6367 140.819 45.0485 140.385 44.6148C139.952 44.1811 139.363 43.9375 138.75 43.9375H134.125V39.3125H138.75C140.59 39.3125 142.355 40.0434 143.656 41.3444C144.957 42.6455 145.688 44.4101 145.688 46.25V106.375C145.688 108.215 144.957 109.98 143.656 111.281C142.355 112.582 140.59 113.312 138.75 113.312Z" fill="#F0AE42"/>
<path d="M23.125 113.312H9.25C7.41006 113.312 5.64548 112.582 4.34445 111.281C3.04341 109.98 2.3125 108.215 2.3125 106.375V46.25C2.3125 44.4101 3.04341 42.6455 4.34445 41.3444C5.64548 40.0434 7.41006 39.3125 9.25 39.3125H13.875V43.9375H9.25C8.63669 43.9375 8.04849 44.1811 7.61482 44.6148C7.18114 45.0485 6.9375 45.6367 6.9375 46.25V106.375C6.9375 106.988 7.18114 107.577 7.61482 108.01C8.04849 108.444 8.63669 108.688 9.25 108.688H23.125V113.312Z" fill="#F0AE42"/>
<path d="M122.562 127.187H120.25V74C120.25 72.16 119.519 70.3955 118.218 69.0944C116.917 67.7934 115.152 67.0625 113.312 67.0625H102.844C103.809 65.624 104.591 64.0702 105.17 62.4375H108.688C113.591 62.4254 118.332 60.6825 122.076 57.5162C125.82 54.3499 128.326 49.9635 129.151 45.1303C129.977 40.2971 129.07 35.3275 126.59 31.0978C124.11 26.8681 120.216 23.6498 115.595 22.0103C115.374 17.8329 113.898 13.8193 111.36 10.4936C108.822 7.16794 105.341 4.68478 101.37 3.36843C97.3993 2.05208 93.1239 1.96371 89.1021 3.11486C85.0803 4.26601 81.4991 6.60318 78.8262 9.82116C75.0581 8.91751 71.1119 9.0907 67.4374 10.321C63.763 11.5512 60.5081 13.7891 58.0437 16.7795C55.0767 16.055 51.9862 15.9948 48.9932 16.6032C46.0001 17.2115 43.1784 18.4734 40.7295 20.2986C38.2806 22.1238 36.2651 24.4673 34.8269 27.1617C33.3887 29.8562 32.5633 32.835 32.4097 35.8853C28.7523 37.1632 25.5254 39.4389 23.094 42.4551C20.6625 45.4712 19.1235 49.1076 18.651 52.9528C18.1784 56.7981 18.7912 60.6988 20.4201 64.214C22.0489 67.7291 24.6288 70.7184 27.8679 72.8437C27.7961 73.2251 27.7566 73.6119 27.75 74V127.187H25.4375C23.5975 127.187 21.833 127.918 20.5319 129.219C19.2309 130.52 18.5 132.285 18.5 134.125C18.5037 137.19 19.723 140.129 21.8906 142.297C24.0582 144.464 26.997 145.684 30.0625 145.687H117.938C121.003 145.684 123.942 144.464 126.109 142.297C128.277 140.129 129.496 137.19 129.5 134.125C129.5 132.285 128.769 130.52 127.468 129.219C126.167 127.918 124.402 127.187 122.562 127.187ZM115.625 74V127.187H111V78.625C111 78.0117 110.756 77.4235 110.323 76.9898C109.889 76.5561 109.301 76.3125 108.688 76.3125H95.1617C95.4994 75.5586 95.7951 74.7866 96.0474 74H99.4375C100.051 74 100.639 73.7563 101.073 73.3227C101.506 72.889 101.75 72.3008 101.75 71.6875H113.312C113.926 71.6875 114.514 71.9311 114.948 72.3648C115.381 72.7985 115.625 73.3867 115.625 74ZM58.0299 54.3622L56.0134 52.3457L59.2832 49.0758L61.2997 51.0923C61.6706 51.4636 62.1568 51.6977 62.6783 51.7561C63.1998 51.8145 63.7257 51.6938 64.1696 51.4138C65.9271 50.3032 67.8611 49.5 69.8884 49.0388C70.3997 48.9224 70.8564 48.6356 71.1833 48.2255C71.5102 47.8154 71.688 47.3063 71.6875 46.7818V43.9375H76.3125V46.7818C76.312 47.3063 76.4898 47.8154 76.8167 48.2255C77.1436 48.6356 77.6002 48.9224 78.1116 49.0388C80.1389 49.5 82.0728 50.3032 83.8304 51.4138C84.2743 51.6938 84.8002 51.8145 85.3217 51.7561C85.8432 51.6977 86.3293 51.4636 86.7002 51.0923L88.7167 49.0758L91.9866 52.3457L89.9701 54.3622C89.5989 54.7331 89.3648 55.2193 89.3064 55.7408C89.248 56.2623 89.3687 56.7882 89.6487 57.232C90.7593 58.9896 91.5624 60.9236 92.0236 62.9508C92.14 63.4622 92.4269 63.9188 92.837 64.2458C93.2471 64.5727 93.7562 64.7505 94.2806 64.75H97.125V69.375H94.2806C93.7562 69.3745 93.2471 69.5523 92.837 69.8792C92.4269 70.2061 92.14 70.6627 92.0236 71.1741C91.5634 73.2024 90.7602 75.1373 89.6487 76.8952C89.3693 77.3388 89.2489 77.8642 89.3073 78.3853C89.3657 78.9063 89.5994 79.392 89.9701 79.7627L91.9866 81.7792L88.7167 85.0491L86.7002 83.0326C86.3291 82.6617 85.8428 82.4281 85.3213 82.3701C84.7998 82.3121 84.274 82.4332 83.8304 82.7135C82.0727 83.8265 80.1391 84.6334 78.1116 85.1C77.6026 85.2159 77.1477 85.5006 76.821 85.9079C76.4944 86.3152 76.3151 86.821 76.3125 87.3431V90.1875H71.6875V87.3431C71.6875 86.819 71.5094 86.3105 71.1826 85.9009C70.8557 85.4912 70.3994 85.2048 69.8884 85.0884C67.8616 84.6254 65.928 83.8224 64.1696 82.7135C63.726 82.4332 63.2002 82.3121 62.6787 82.3701C62.1572 82.4281 61.6709 82.6617 61.2997 83.0326L59.2832 85.0491L56.0134 81.7792L58.0299 79.7627C58.4 79.3921 58.6334 78.9069 58.6918 78.3864C58.7502 77.8658 58.6301 77.3409 58.3513 76.8975C57.2417 75.1386 56.4386 73.2041 55.9764 71.1764C55.8605 70.665 55.5742 70.2081 55.1645 69.8808C54.7548 69.5535 54.2461 69.3751 53.7217 69.375H50.875V64.75H53.7217C54.2461 64.7498 54.7548 64.5715 55.1645 64.2441C55.5742 63.9168 55.8605 63.46 55.9764 62.9485C56.4382 60.9215 57.2413 58.9876 58.3513 57.2297C58.6307 56.7861 58.7511 56.2607 58.6927 55.7397C58.6343 55.2187 58.4006 54.733 58.0299 54.3622ZM51.1062 83.4142L57.6483 89.9562C58.082 90.3898 58.67 90.6333 59.2832 90.6333C59.8964 90.6333 60.4845 90.3898 60.9182 89.9562L63.3186 87.5558C64.5179 88.184 65.7708 88.704 67.0625 89.1098V92.5C67.0625 93.1133 67.3061 93.7015 67.7398 94.1352C68.1735 94.5688 68.7617 94.8125 69.375 94.8125H78.625C79.2383 94.8125 79.8265 94.5688 80.2602 94.1352C80.6939 93.7015 80.9375 93.1133 80.9375 92.5V89.1098C82.2292 88.7033 83.4822 88.1825 84.6814 87.5535L87.0818 89.9562C87.5155 90.3898 88.1035 90.6333 88.7167 90.6333C89.3299 90.6333 89.918 90.3898 90.3517 89.9562L96.8938 83.4142C97.2137 83.0977 97.4328 82.6937 97.5233 82.2529C97.6139 81.8121 97.5718 81.3544 97.4025 80.9375H106.375V127.187H41.625V80.9375H50.5975C50.4285 81.3546 50.3868 81.8125 50.4778 82.2533C50.5687 82.694 50.7882 83.098 51.1086 83.4142H51.1062ZM78.9927 14.6682C79.4619 14.8203 79.9674 14.8184 80.4354 14.6628C80.9035 14.5072 81.3095 14.206 81.5942 13.8033C83.58 10.9743 86.42 8.85598 89.6977 7.75899C92.9754 6.66199 96.5183 6.64403 99.807 7.70775C103.096 8.77146 105.957 10.8609 107.971 13.6696C109.986 16.4783 111.047 19.8585 111 23.3146L110.979 23.6453C110.963 24.1711 111.126 24.6867 111.442 25.1071C111.758 25.5275 112.209 25.8276 112.718 25.9578C116.526 26.9472 119.843 29.2896 122.05 32.547C124.256 35.8044 125.201 39.7539 124.707 43.6571C124.213 47.5603 122.314 51.15 119.366 53.7552C116.418 56.3604 112.622 57.8027 108.688 57.8125H106.232C106.769 53.2873 105.792 48.7116 103.453 44.8003C101.115 40.889 97.5473 37.8622 93.3071 36.1929C91.4538 31.5608 87.9957 27.7502 83.5646 25.4574C79.1336 23.1646 74.0255 22.5427 69.1738 23.7054C67.3828 21.5688 65.1809 19.8136 62.6988 18.5439C64.8151 16.4921 67.4456 15.0492 70.3132 14.3671C73.1808 13.685 76.1792 13.789 78.9927 14.6682ZM23.125 55.5C23.1254 51.9091 24.3214 48.4207 26.5244 45.585C28.7274 42.7493 31.8118 40.7279 35.291 39.8397C35.8007 39.7095 36.2507 39.4095 36.5669 38.989C36.883 38.5686 37.0464 38.053 37.0301 37.5272L37 37C37.0047 33.5655 38.1018 30.2215 40.1324 27.4516C42.163 24.6818 45.022 22.6295 48.2959 21.5917C51.5698 20.5538 55.089 20.5842 58.3445 21.6783C61.6001 22.7725 64.4232 24.8738 66.4057 27.6783C66.6905 28.081 67.0965 28.3822 67.5645 28.5378C68.0326 28.6934 68.5381 28.6953 69.0073 28.5432C73.0529 27.2264 77.4546 27.5583 81.2571 29.4667C85.0596 31.3751 87.9561 34.706 89.318 38.7367C89.432 39.0722 89.6217 39.3771 89.8723 39.6277C90.1229 39.8783 90.4277 40.0679 90.7633 40.182C92.7766 40.8585 94.6363 41.9262 96.2357 43.3237C97.8351 44.7211 99.1427 46.4208 100.083 48.3251C101.024 50.2294 101.579 52.3008 101.716 54.4202C101.854 56.5397 101.572 58.6654 100.885 60.6754C100.482 60.3279 99.9696 60.1331 99.4375 60.125H96.0474C95.6406 58.8337 95.1206 57.5808 94.4934 56.381L96.8938 53.9807C97.3273 53.547 97.5708 52.9589 97.5708 52.3457C97.5708 51.7325 97.3273 51.1444 96.8938 50.7108L90.3517 44.1687C89.918 43.7352 89.3299 43.4917 88.7167 43.4917C88.1035 43.4917 87.5155 43.7352 87.0818 44.1687L84.6814 46.5668C83.4816 45.9403 82.2287 45.4211 80.9375 45.0151V41.625C80.9375 41.0117 80.6939 40.4235 80.2602 39.9898C79.8265 39.5561 79.2383 39.3125 78.625 39.3125H69.375C68.7617 39.3125 68.1735 39.5561 67.7398 39.9898C67.3061 40.4235 67.0625 41.0117 67.0625 41.625V45.0151C65.7712 45.4218 64.5183 45.9419 63.3186 46.5691L60.9182 44.1687C60.4845 43.7352 59.8964 43.4917 59.2832 43.4917C58.67 43.4917 58.082 43.7352 57.6483 44.1687L51.1062 50.7108C50.6727 51.1444 50.4292 51.7325 50.4292 52.3457C50.4292 52.9589 50.6727 53.547 51.1062 53.9807L53.5066 56.381C52.8793 57.5808 52.3592 58.8336 51.9526 60.125H48.5625C47.9492 60.125 47.361 60.3686 46.9273 60.8023C46.4936 61.236 46.25 61.8242 46.25 62.4375V67.0625H34.6875C33.0062 67.0682 31.3853 67.6902 30.1319 68.8107C27.9718 67.3269 26.2051 65.3397 24.9844 63.0208C23.7637 60.7018 23.1255 58.1206 23.125 55.5ZM32.375 74C32.375 73.3867 32.6186 72.7985 33.0523 72.3648C33.486 71.9311 34.0742 71.6875 34.6875 71.6875H46.25C46.25 72.3008 46.4936 72.889 46.9273 73.3227C47.361 73.7563 47.9492 74 48.5625 74H51.9526C52.2057 74.7863 52.5014 75.5583 52.8383 76.3125H39.3125C38.6992 76.3125 38.111 76.5561 37.6773 76.9898C37.2436 77.4235 37 78.0117 37 78.625V127.187H32.375V74ZM117.938 141.062H30.0625C28.2225 141.062 26.458 140.332 25.1569 139.031C23.8559 137.729 23.125 135.965 23.125 134.125C23.125 133.512 23.3686 132.923 23.8023 132.49C24.236 132.056 24.8242 131.812 25.4375 131.812H122.562C123.176 131.812 123.764 132.056 124.198 132.49C124.631 132.923 124.875 133.512 124.875 134.125C124.875 135.965 124.144 137.729 122.843 139.031C121.542 140.332 119.777 141.062 117.938 141.062Z" fill="black"/>
<path d="M74 80.9375C76.7442 80.9375 79.4268 80.1237 81.7085 78.5991C83.9903 77.0745 85.7687 74.9075 86.8188 72.3722C87.869 69.8369 88.1438 67.0471 87.6084 64.3556C87.073 61.6641 85.7516 59.1918 83.8111 57.2514C81.8706 55.3109 79.3984 53.9894 76.7069 53.4541C74.0154 52.9187 71.2256 53.1935 68.6903 54.2436C66.1549 55.2938 63.988 57.0722 62.4634 59.3539C60.9388 61.6357 60.125 64.3183 60.125 67.0625C60.1287 70.7412 61.5917 74.2683 64.1929 76.8695C66.7942 79.4708 70.3212 80.9338 74 80.9375ZM74 57.8125C75.8295 57.8125 77.6179 58.355 79.139 59.3714C80.6602 60.3878 81.8458 61.8324 82.5459 63.5227C83.246 65.2129 83.4292 67.0727 83.0723 68.8671C82.7153 70.6614 81.8344 72.3096 80.5407 73.6032C79.2471 74.8968 77.5989 75.7778 75.8046 76.1347C74.0103 76.4916 72.1504 76.3085 70.4602 75.6084C68.77 74.9082 67.3253 73.7227 66.3089 72.2015C65.2925 70.6803 64.75 68.892 64.75 67.0625C64.75 64.6092 65.7246 62.2565 67.4593 60.5217C69.194 58.787 71.5467 57.8125 74 57.8125Z" fill="black"/>
<path d="M138.75 39.3125H134.125V43.9375H138.75C139.363 43.9375 139.952 44.1811 140.385 44.6148C140.819 45.0485 141.062 45.6367 141.062 46.25V106.375C141.062 106.988 140.819 107.577 140.385 108.01C139.952 108.444 139.363 108.688 138.75 108.688H124.875V113.312H138.75C140.59 113.312 142.355 112.582 143.656 111.281C144.957 109.98 145.688 108.215 145.688 106.375V46.25C145.688 44.4101 144.957 42.6455 143.656 41.3444C142.355 40.0434 140.59 39.3125 138.75 39.3125Z" fill="black"/>
<path d="M23.125 108.688H9.25C8.63669 108.688 8.04849 108.444 7.61482 108.01C7.18114 107.577 6.9375 106.988 6.9375 106.375V46.25C6.9375 45.6367 7.18114 45.0485 7.61482 44.6148C8.04849 44.1811 8.63669 43.9375 9.25 43.9375H13.875V39.3125H9.25C7.41006 39.3125 5.64548 40.0434 4.34445 41.3444C3.04341 42.6455 2.3125 44.4101 2.3125 46.25V106.375C2.3125 108.215 3.04341 109.98 4.34445 111.281C5.64548 112.582 7.41006 113.312 9.25 113.312H23.125V108.688Z" fill="black"/>
</svg>
