<svg width="71" height="81" viewBox="0 0 71 81" fill="none" xmlns="http://www.w3.org/2000/svg">
<path d="M26.625 6.65625H44.375V8.875H26.625V6.65625Z" fill="black"/>
<path d="M26.625 11.0938H44.375V13.3125H26.625V11.0938Z" fill="black"/>
<path d="M26.625 15.5312H44.375V17.75H26.625V15.5312Z" fill="black"/>
<path d="M29.9531 29.9531H45.4844V32.1719H29.9531V29.9531Z" fill="black"/>
<path d="M27.7344 34.3906H43.2656V36.6094H27.7344V34.3906Z" fill="black"/>
<path d="M25.5156 38.8281H41.0469V41.0469H25.5156V38.8281Z" fill="black"/>
<path d="M26.625 53.25H44.375V55.4688H26.625V53.25Z" fill="black"/>
<path d="M26.625 57.6875H44.375V59.9062H26.625V57.6875Z" fill="black"/>
<path d="M26.625 62.125H44.375V64.3438H26.625V62.125Z" fill="black"/>
<path d="M14.9766 59.9062H22.1875V67.6719C22.1875 68.2845 22.6837 68.7812 23.2969 68.7812H47.7031C48.3163 68.7812 48.8125 68.2845 48.8125 67.6719V59.9062H51.1083C51.657 64.2771 55.3891 67.6719 59.9062 67.6719C64.7998 67.6719 68.7812 63.6905 68.7812 58.7969C68.7812 53.9033 64.7998 49.9219 59.9062 49.9219C55.3891 49.9219 51.657 53.3166 51.1083 57.6875H48.8125V49.9219C48.8125 49.3092 48.3163 48.8125 47.7031 48.8125H23.2969C22.6837 48.8125 22.1875 49.3092 22.1875 49.9219V57.6875H14.9766C12.1685 57.6875 9.52394 56.5895 7.52945 54.5956C5.53604 52.6021 4.4375 49.9571 4.4375 47.1484C4.4375 41.3372 9.16535 36.6094 14.9766 36.6094H21.6958L18.9298 43.9855C18.802 44.3263 18.8496 44.7076 19.0565 45.0072C19.2646 45.3062 19.6047 45.4844 19.9688 45.4844H44.375C44.8376 45.4844 45.2514 45.1973 45.414 44.7645L48.4721 36.6094H56.0234C59.4241 36.6094 62.6255 35.2806 65.0393 32.8674C67.452 30.4553 68.7812 27.2534 68.7812 23.8516C68.7812 16.8167 63.0578 11.0938 56.0234 11.0938H48.8125V3.32812C48.8125 2.71547 48.3163 2.21875 47.7031 2.21875H23.2969C22.6837 2.21875 22.1875 2.71547 22.1875 3.32812V21.0781C22.1875 21.6908 22.6837 22.1875 23.2969 22.1875H47.7031C48.3163 22.1875 48.8125 21.6908 48.8125 21.0781V13.3125H56.0234C61.8347 13.3125 66.5625 18.0403 66.5625 23.8516C66.5625 26.6602 65.464 29.3053 63.4706 31.2987C61.4761 33.2926 58.8315 34.3906 56.0234 34.3906H49.3042L52.0702 27.0145C52.198 26.6737 52.1504 26.2924 51.9435 25.9928C51.7354 25.6938 51.3953 25.5156 51.0312 25.5156H26.625C26.1624 25.5156 25.7486 25.8027 25.586 26.2355L22.5279 34.3906H14.9766C7.94222 34.3906 2.21875 40.1135 2.21875 47.1484C2.21875 50.5502 3.54805 53.7521 5.96073 56.1643C8.37448 58.5775 11.5759 59.9062 14.9766 59.9062ZM59.9062 52.1406C63.5767 52.1406 66.5625 55.1264 66.5625 58.7969C66.5625 62.4673 63.5767 65.4531 59.9062 65.4531C56.2358 65.4531 53.25 62.4673 53.25 58.7969C53.25 55.1264 56.2358 52.1406 59.9062 52.1406ZM24.4062 51.0312H46.5938V66.5625H24.4062V51.0312ZM46.5938 19.9688H24.4062V4.4375H46.5938V19.9688ZM27.3942 27.7344H49.43L43.6058 43.2656H21.57L27.3942 27.7344Z" fill="black"/>
<path d="M58.7969 62.125C59.0807 62.125 59.3646 62.0167 59.5812 61.8L64.0187 57.3625L62.45 55.7938L58.7969 59.4469L57.3625 58.0125L55.7938 59.5812L58.0125 61.8C58.2292 62.0167 58.513 62.125 58.7969 62.125Z" fill="black"/>
</svg>
