<svg width="154" height="154" viewBox="0 0 154 154" fill="none" xmlns="http://www.w3.org/2000/svg">
<path d="M126.441 100.41C128.487 96.6437 129.669 92.4688 129.901 88.1885C130.132 83.9082 129.408 79.63 127.781 75.6645C126.153 71.6989 123.663 68.1454 120.491 65.262C117.32 62.3785 113.546 60.2374 109.443 58.9941C108.299 55.1953 106.382 51.674 103.812 48.6509C101.243 45.6277 98.077 43.1679 94.5125 41.4257C90.9481 39.6834 87.0621 38.6963 83.0983 38.5262C79.1345 38.3561 75.1783 39.0066 71.4776 40.4371C66.2873 36.0706 59.7202 33.6799 52.9375 33.6875C52.1482 33.6875 51.3638 33.7188 50.589 33.7814C54.4806 29.3754 59.6287 26.2675 65.3402 24.8762C71.0517 23.4849 77.0524 23.8769 82.5344 25.9996C86.5346 22.6431 91.3708 20.435 96.5272 19.6107C101.684 18.7864 106.967 19.3768 111.814 21.319C116.662 23.2612 120.891 26.4823 124.052 30.639C127.212 34.7958 129.186 39.7323 129.762 44.9223C135.707 46.9862 140.815 50.9358 144.309 56.1702C147.803 61.4046 149.491 67.637 149.116 73.9191C148.741 80.2011 146.325 86.1888 142.234 90.9709C138.143 95.753 132.602 99.0677 126.453 100.41H126.441Z" fill="#78A0D4"/>
<path d="M101.062 115.5C107.986 115.499 114.679 113.011 119.921 108.488C125.163 103.966 128.606 97.71 129.622 90.8614C130.638 84.0129 129.159 77.0273 125.455 71.1778C121.751 65.3283 116.069 61.0044 109.443 58.9941C108.299 55.1953 106.382 51.674 103.812 48.6509C101.243 45.6277 98.077 43.1679 94.5125 41.4257C90.9481 39.6834 87.0621 38.6963 83.0983 38.5262C79.1345 38.3561 75.1783 39.0066 71.4776 40.4371C67.4774 37.0806 62.6413 34.8725 57.4848 34.0482C52.3284 33.2239 47.0449 33.8143 42.1976 35.7565C37.3503 37.6987 33.1209 40.9198 29.9602 45.0765C26.7996 49.2333 24.8261 54.1698 24.2502 59.3598C17.7965 61.5885 12.342 66.0331 8.85593 71.9037C5.36983 77.7743 4.07793 84.6907 5.20979 91.4239C6.34165 98.1571 9.82398 104.271 15.0379 108.679C20.2519 113.087 26.8598 115.504 33.6875 115.5H101.062Z" fill="#C0DAFC"/>
<path d="M69.7812 134.75L75.7632 129.856C82.1665 124.617 87.3261 118.021 90.869 110.545C94.412 103.068 96.2499 94.8983 96.25 86.625C91.7314 86.6248 87.268 85.6312 83.176 83.7147C79.0839 81.7982 75.4632 79.0056 72.5701 75.5346L69.7812 72.1875L66.9924 75.5346C64.0993 79.0056 60.4786 81.7982 56.3865 83.7147C52.2945 85.6312 47.8311 86.6248 43.3125 86.625C43.3126 94.8983 45.1505 103.068 48.6935 110.545C52.2365 118.021 57.396 124.617 63.7993 129.856L69.7812 134.75Z" fill="#1F71DB"/>
<path d="M55.3438 105.875L64.9688 115.5L84.2188 96.25L79.4062 91.4375L64.9688 105.875L60.1562 101.062L55.3438 105.875Z" fill="#F2F2F2"/>
<path d="M151.594 72.1875C151.587 65.9421 149.712 59.8414 146.21 54.6703C142.708 49.4992 137.739 45.4942 131.942 43.1705C131.088 37.8268 128.861 32.7963 125.479 28.5712C122.098 24.3461 117.678 21.0712 112.651 19.0668C107.624 17.0624 102.163 16.3971 96.8026 17.1361C91.4417 17.8752 86.3644 19.9932 82.0676 23.2829C78.8843 22.2079 75.5473 21.6585 72.1875 21.6563C67.9314 21.6633 63.7216 22.5395 59.8161 24.2309C55.9106 25.9224 52.3917 28.3936 49.4749 31.493C42.6739 32.238 36.3064 35.1977 31.3524 39.9164C26.3985 44.6352 23.1328 50.8513 22.0581 57.608C15.3094 60.3069 9.71176 65.2726 6.22763 71.6515C2.7435 78.0303 1.59054 85.4238 2.96698 92.5606C4.34343 99.6974 8.16327 106.132 13.7698 110.757C19.3763 115.383 26.4191 117.911 33.6875 117.906H50.0139C53.3416 123.132 57.48 127.794 62.2737 131.718L68.2581 136.612C68.6879 136.964 69.226 137.156 69.7812 137.156C70.3364 137.156 70.8746 136.964 71.3044 136.612L77.2887 131.718C82.0867 127.795 86.2292 123.133 89.5606 117.906H101.062C106.5 117.901 111.841 116.477 116.56 113.777C121.279 111.076 125.213 107.191 127.972 102.506C134.708 100.778 140.682 96.8643 144.957 91.378C149.231 85.8916 151.565 79.1425 151.594 72.1875ZM74.24 127.991L69.7812 131.641L65.3225 127.991C59.487 123.235 54.7269 117.296 51.3563 110.564C47.9857 103.833 46.0815 96.4636 45.7693 88.9422C50.2157 88.618 54.5509 87.3995 58.5153 85.3599C62.4796 83.3202 65.9914 80.5014 68.8404 77.0722L69.7812 75.9461L70.7221 77.0746C73.5714 80.5031 77.0834 83.3214 81.0477 85.3606C85.012 87.3998 89.347 88.618 93.7932 88.9422C93.481 96.4636 91.5767 103.833 88.2062 110.564C84.8356 117.296 80.0755 123.235 74.24 127.991ZM101.062 113.094H92.2965C96.4817 104.899 98.6614 95.8269 98.6562 86.625C98.6562 85.9868 98.4027 85.3748 97.9515 84.9235C97.5002 84.4723 96.8882 84.2188 96.25 84.2188C92.0832 84.2241 87.9664 83.3107 84.1928 81.5435C80.4193 79.7763 77.0818 77.1988 74.4181 73.9946L71.6292 70.6475C71.3963 70.388 71.1114 70.1805 70.793 70.0385C70.4746 69.8964 70.1299 69.823 69.7812 69.823C69.4326 69.823 69.0878 69.8964 68.7694 70.0385C68.451 70.1805 68.1661 70.388 67.9332 70.6475L65.1444 73.9922C62.4812 77.1972 59.1439 79.7754 55.3703 81.5431C51.5966 83.3107 47.4796 84.2243 43.3125 84.2188C42.6743 84.2188 42.0623 84.4723 41.611 84.9235C41.1598 85.3748 40.9062 85.9868 40.9062 86.625C40.9011 95.8269 43.0808 104.899 47.266 113.094H33.6875C27.4278 113.101 21.3685 110.887 16.5867 106.848C11.805 102.808 8.6106 97.2037 7.57149 91.0308C6.53239 84.858 7.71587 78.5166 10.9115 73.1341C14.1072 67.7516 19.108 63.6766 25.025 61.6337C25.4555 61.4847 25.8349 61.2166 26.119 60.8605C26.4031 60.5044 26.5803 60.0749 26.63 59.6221C27.158 54.865 28.9671 50.3404 31.8644 46.5306C34.7617 42.7208 38.6385 39.7687 43.0816 37.989C47.5248 36.2093 52.3675 35.6687 57.0937 36.4249C61.8199 37.181 66.2523 39.2055 69.9184 42.2826C70.2473 42.558 70.6438 42.7404 71.0668 42.8111C71.4899 42.8818 71.9241 42.838 72.3246 42.6845C75.7165 41.372 79.3431 40.7747 82.9767 40.9301C86.6103 41.0854 90.1727 41.9901 93.4402 43.5872C96.7076 45.1844 99.6098 47.4396 101.965 50.2113C104.319 52.9831 106.076 56.2116 107.124 59.6943C107.239 60.0734 107.446 60.4184 107.726 60.6983C108.007 60.9783 108.352 61.1847 108.731 61.2992C114.801 63.1433 120.007 67.1061 123.4 72.466C126.794 77.8258 128.15 84.2263 127.22 90.5017C126.291 96.7772 123.139 102.51 118.338 106.657C113.537 110.803 107.406 113.088 101.062 113.094ZM130.717 96.5123C133.338 88.7148 132.774 80.1977 129.148 72.814C125.521 65.4304 119.125 59.7777 111.352 57.0859C108.662 49.3126 103.011 42.9165 95.628 39.2896C88.2453 35.6627 79.7289 35.0987 71.9324 37.7204C67.482 34.3241 62.2022 32.1836 56.6431 31.5219C60.2047 28.9206 64.3633 27.2567 68.7362 26.6831C73.1092 26.1096 77.5562 26.6449 81.6681 28.2398C82.0686 28.3933 82.5029 28.437 82.9259 28.3664C83.349 28.2957 83.7455 28.1133 84.0744 27.8379C87.7407 24.761 92.1732 22.7366 96.8995 21.9806C101.626 21.2245 106.469 21.7651 110.912 23.5448C115.355 25.3244 119.232 28.2764 122.13 32.0861C125.027 35.8957 126.837 40.4203 127.365 45.1773C127.415 45.6302 127.592 46.0596 127.876 46.4157C128.16 46.7719 128.54 47.04 128.97 47.189C134.024 48.9292 138.431 52.16 141.612 56.4554C144.792 60.7509 146.596 65.9093 146.786 71.2507C146.976 76.592 145.543 81.8656 142.676 86.3761C139.808 90.8866 135.641 94.4223 130.724 96.5171L130.717 96.5123Z" fill="black"/>
<path d="M85.92 94.5488L81.1075 89.7363C80.6562 89.2852 80.0443 89.0318 79.4063 89.0318C78.7682 89.0318 78.1563 89.2852 77.705 89.7363L64.9688 102.473L61.8575 99.3613C61.4062 98.9102 60.7943 98.6568 60.1563 98.6568C59.5182 98.6568 58.9063 98.9102 58.455 99.3613L53.6425 104.174C53.1914 104.625 52.938 105.237 52.938 105.875C52.938 106.513 53.1914 107.125 53.6425 107.576L63.2675 117.201C63.7188 117.652 64.3307 117.906 64.9688 117.906C65.6068 117.906 66.2187 117.652 66.67 117.201L85.92 97.9512C86.3711 97.5 86.6245 96.8881 86.6245 96.25C86.6245 95.612 86.3711 95 85.92 94.5488ZM64.9688 112.098L58.7462 105.875L60.1563 104.465L63.2675 107.576C63.7188 108.027 64.3307 108.281 64.9688 108.281C65.6068 108.281 66.2187 108.027 66.67 107.576L79.4063 94.8399L80.8163 96.25L64.9688 112.098Z" fill="black"/>
</svg>
