<svg width="718" height="481" viewBox="0 0 718 481" fill="none" xmlns="http://www.w3.org/2000/svg">
<path opacity="0.57" d="M418.131 155.347L180.263 154.32C179.092 154.311 178.552 152.603 179.447 151.718L203.545 127.839V21.7467C203.545 17.463 206.675 13.79 210.549 13.5422L418.131 0.0184496C422.83 -0.291322 426.696 3.33742 426.696 8.06365V146.779C426.696 151.532 422.848 155.373 418.131 155.347Z" fill="url(#paint0_linear)"/>
<path d="M264.402 34.9105L220.976 37.2206V31.5738L264.402 29.1399V34.9105Z" fill="#D8DEE8"/>
<path d="M264.402 46.4487L220.976 48.5109V42.8642L264.402 40.6781V46.4487Z" fill="#D8DEE8"/>
<path d="M264.402 64.6189L220.976 66.3094V60.6627L264.402 58.8484V64.6189Z" fill="#D8DEE8"/>
<path d="M264.402 76.1601L220.976 77.6028V71.9561L264.402 70.3895V76.1601Z" fill="#D8DEE8"/>
<path d="M405.577 122.573L220.976 124.493V118.847L405.577 116.413V122.573Z" fill="#D8DEE8"/>
<path d="M405.577 134.893L220.976 135.796V130.14L405.577 128.733V134.893Z" fill="#D8DEE8"/>
<path d="M264.402 94.3304L220.976 95.4013V89.7547L264.402 88.5598V94.3304Z" fill="#D8DEE8"/>
<path d="M264.402 105.872L220.976 106.704V101.048L264.402 100.101V105.872Z" fill="#D8DEE8"/>
<path d="M405.577 103.81L281.265 106.146V28.19L282.4 28.1281V104.916L405.577 102.526V103.81Z" fill="#D8DEE8"/>
<path d="M297.464 83.878L296.648 83.046L321.243 55.7685L345.944 63.734L370.849 40.6162L396.498 52.7681L395.931 53.9275L371.026 42.1208L346.201 65.1412L321.553 57.1757L297.464 83.878Z" fill="#D8DEE8"/>
<path opacity="0.7" d="M301.019 83.3469C301.019 85.6747 299.246 87.6041 297.056 87.6661C294.875 87.728 293.111 85.8959 293.111 83.5859C293.111 81.267 294.875 79.3376 297.056 79.2668C299.246 79.196 301.019 81.0281 301.019 83.3469Z" fill="url(#paint1_linear)"/>
<path opacity="0.7" d="M325.454 56.2994C325.454 58.6537 323.636 60.6274 321.393 60.7159C319.159 60.8044 317.35 58.9812 317.35 56.6358C317.35 54.2903 319.159 52.3166 321.393 52.2193C323.636 52.1308 325.454 53.954 325.454 56.2994Z" fill="url(#paint2_linear)"/>
<path opacity="0.7" d="M350.217 64.2827C350.217 66.6635 348.355 68.6549 346.068 68.7346C343.78 68.8142 341.936 66.9644 341.936 64.5925C341.936 62.2205 343.789 60.2291 346.068 60.1406C348.364 60.0521 350.217 61.9019 350.217 64.2827Z" fill="url(#paint3_linear)"/>
<path opacity="0.7" d="M375.184 41.1649C375.184 43.5722 373.278 45.6078 370.937 45.714C368.597 45.8203 366.708 43.9617 366.708 41.572C366.708 39.1736 368.597 37.138 370.937 37.0229C373.278 36.9079 375.184 38.7576 375.184 41.1649Z" fill="url(#paint4_linear)"/>
<path opacity="0.7" d="M400.559 53.1752C400.559 55.6091 398.608 57.6536 396.214 57.751C393.821 57.8483 391.888 55.9543 391.888 53.5381C391.888 51.1131 393.821 49.0686 396.214 48.9624C398.608 48.8473 400.559 50.7413 400.559 53.1752Z" fill="url(#paint5_linear)"/>
<path d="M285.069 391.515C241.274 392.909 209.858 396.65 169.788 401.521C135.999 405.63 17.0444 420.095 17.5404 432.793C17.9562 443.404 101.533 446.493 101.494 457.81C101.474 463.793 78.1063 466.182 78.3142 470.318C78.6617 477.22 144.345 483.882 225.549 479.699C305.639 475.572 320.78 465.02 413.507 454.056C533.103 439.915 594.278 447.261 595.201 437.795C596.366 425.838 499.736 404.329 419.773 395.891C406.842 394.527 354.524 389.304 285.069 391.515Z" fill="#EBEFF2"/>
<path d="M288.202 397.768C278.47 399.17 263.736 401.963 239.332 404.335C228.617 405.375 203.5 407.555 177.305 409.965C158.785 411.667 148.52 412.678 148.485 414.344C148.422 417.205 178.6 418.933 178.558 421.225C178.475 425.811 57.2663 421.951 56.0724 433.422C55.4814 439.085 84.266 447.463 107.134 451.246C142.797 457.149 170.254 452.906 214.899 445.616C298.342 431.993 295.915 431.726 316.708 428.729C402.895 416.309 444.174 420.955 444.519 415.595C445.03 407.691 355.929 388.014 288.202 397.768Z" fill="#D8DEE8"/>
<path d="M162.583 458.435C160.641 451.053 110.695 453.819 109.641 461.249C109.041 465.471 123.909 473.523 138.776 471.881C151.176 470.514 163.626 462.396 162.583 458.435Z" fill="#D8DEE8"/>
<path d="M385.94 435.296C367.749 430.036 345.659 434.94 345.528 439.675C345.412 443.831 362.195 448.836 376.855 447.493C384.9 446.754 395.328 443.825 395.337 440.611C395.349 438.014 388.559 436.052 385.94 435.296Z" fill="#D8DEE8"/>
<path opacity="0.3" d="M451.739 350.483L32.3634 375.746L72.6416 312.52L476.541 301.168L451.739 350.483Z" fill="url(#paint6_linear)"/>
<path opacity="0.24" d="M301.834 286.975L0 292.182L42.8799 228.73L332.817 233.047L301.834 286.975Z" fill="url(#paint7_linear)"/>
<path opacity="0.24" d="M619.484 228.955L281.663 221.87L313.382 168.516L640 185.86L619.484 228.955Z" fill="url(#paint8_linear)"/>
<path opacity="0.3" d="M580.753 169.824L333.138 154.416L355.189 117.069L596.752 137.807L580.753 169.824Z" fill="url(#paint9_linear)"/>
<path opacity="0.53" d="M578.199 284.74L312.841 289.546L336.701 247.666L595.151 249.454L578.199 284.74Z" fill="url(#paint10_linear)"/>
<path opacity="0.24" d="M620.101 311.236L510.318 317.954L519.361 299.813L627.874 294.456L620.101 311.236Z" fill="url(#paint11_linear)"/>
<path d="M488.058 407.276C482.133 405.227 472.157 401.779 465.181 392.227C452.496 374.856 457.955 348.574 467.919 332.102C476.478 317.951 491.658 309.122 522.014 291.461C550.605 274.829 560.213 273.154 563.005 262.445C566.984 247.177 551.481 235.134 558.799 218.019C559.678 215.964 562.693 208.911 569.345 206.462C580.732 202.273 594.786 214.52 601.243 223.411C607.471 231.985 613.945 247.494 608.189 259.62C604.019 268.404 596.972 267.951 595.172 276.107C593.357 284.313 599.945 287.248 602.531 300.96C603.565 306.439 605.638 317.435 600.473 326.638C593.794 338.538 581.059 336.664 578.35 346.668C576.393 353.896 582.404 357.234 581.953 365.669C581.359 376.774 570.216 384.515 560.86 390.833C549.839 398.281 520.113 418.355 488.058 407.276Z" fill="url(#paint12_linear)"/>
<path opacity="0.16" d="M573.462 211.345C567.332 215.531 584.807 234.523 579.636 259.365C574.07 286.095 545.681 303.29 532.563 311.236C510.178 324.794 500.719 321.808 486.258 337.171C480.535 343.252 468.614 355.917 469.796 373.635C469.906 375.28 471.403 393.614 485.486 402.396C501.462 412.357 521.482 402.455 538.734 393.923C549.159 388.767 569.984 378.467 568.573 366.958C567.712 359.923 558.74 354.056 551.339 352.321C540.774 349.846 531.957 355.449 531.015 353.605C530.169 351.945 536.504 345.799 545.164 341.278C562.485 332.235 571.389 338.932 584.263 330.492C585.822 329.469 598.07 321.186 598.412 308.408C598.608 301.037 594.848 291.983 588.893 290.432C582.16 288.68 575.529 297.284 573.972 295.825C572.484 294.432 577.646 285.718 584.005 277.85C593.348 266.29 597.497 266.187 600.984 258.849C606.3 247.651 602.347 235.881 601.756 234.197C596.205 218.419 578.703 207.763 573.462 211.345Z" fill="white"/>
<path d="M491.857 412.099C488.741 415.722 465.246 411.835 452.11 399.523C449.479 397.056 444.727 392.603 443.675 386.14C442.389 378.251 448.071 376.318 447.376 367.874C446.74 360.127 441.816 360.036 440.747 350.474C440.346 346.89 439.532 339.614 445.092 335.837C448.317 333.646 450.928 334.512 452.443 332.499C455.157 328.897 447.554 325.117 447.432 317.583C447.367 313.507 449.627 310.465 454.15 304.384C458.267 298.849 460.586 295.727 464.807 295.007C470.996 293.946 474.334 299.232 478.507 298.087C485.258 296.237 479.223 281.666 489.104 274.992C495.403 270.738 504.886 271.912 506.579 272.152C524.796 274.719 540.531 295.552 534.983 309.899C530.611 321.212 514.624 324.316 515.266 335.834C515.488 339.834 517.544 341.776 516.602 346.875C515.387 353.457 510.514 358.076 507.912 360.486C498.052 369.612 489.065 369.039 487.527 375.123C486.555 378.959 490 379.698 489.623 385.888C489.282 391.545 486.309 392.514 485.854 397.207C485.044 405.654 493.968 409.642 491.857 412.099Z" fill="url(#paint13_linear)"/>
<path opacity="0.16" d="M518.755 281.559C525.224 283.338 529.426 291.423 530.332 297.48C531.624 306.145 526.937 315.879 519.528 320.59C508.004 327.919 495.213 319.718 490.202 326.753C487.559 330.465 488.189 336.857 491.23 339.849C496.582 345.108 507.778 338.26 510.781 342.416C512.928 345.39 510.033 352.819 504.865 357.053C494.539 365.514 478.326 358.604 476.312 363.73C475.837 364.939 477.797 368.645 481.714 376.057C484.672 381.655 485.302 382.215 485.317 384.017C485.358 389.47 479.662 390.736 479.142 396.087C478.542 402.26 485.54 406.606 484.545 407.898C483.499 409.253 474.536 406.126 468.852 400.451C455.38 387.009 461.727 360.685 463.963 351.405C472.98 314.002 502.263 277.023 518.755 281.559Z" fill="white"/>
<path d="M364.212 402.716C358.771 400.913 354.705 396.306 353.559 390.641L345.641 351.518L277.903 353.919L269.566 394.679C268.399 400.386 273.074 406.114 278.455 408.216L306.797 419.286C312.069 421.343 317.736 422.165 323.366 421.684L383.261 416.57C385.013 416.422 386.415 415.046 386.62 413.285C386.825 411.524 388.052 409.544 386.383 408.989L364.212 402.716Z" fill="#97A6B7"/>
<path d="M364.88 400.335C359.445 398.556 355.382 394.006 354.236 388.411L346.324 349.781L280.237 352.155L271.909 392.402C270.742 398.038 273.828 403.691 279.206 405.767L307.519 416.698C312.785 418.731 318.445 419.541 324.07 419.066L383.903 414.015C385.652 413.866 387.054 412.511 387.259 410.771C387.464 409.031 386.409 407.388 384.743 406.843L364.88 400.335Z" fill="url(#paint14_linear)"/>
<path d="M139.483 377.518C132.138 377.954 126.127 373.198 126.127 366.91V140.321C126.127 134.032 132.135 129.179 139.483 129.496L480.672 153.075C486.065 153.309 488.958 148.963 488.958 154.308V347.022C488.958 352.368 484.592 356.978 479.199 357.301L139.483 377.518Z" fill="#97A6B7"/>
<path d="M142.536 377.519C135.191 377.955 129.18 373.199 129.18 366.911V140.322C129.18 134.033 135.188 129.18 142.536 129.497L482.252 144.191C487.645 144.425 492.011 148.964 492.011 154.309V347.023C492.011 352.369 487.645 356.979 482.252 357.302L142.536 377.519Z" fill="white"/>
<path opacity="0.3" d="M482.252 148.727L142.536 134.775C138.61 134.614 135.417 137.203 135.417 140.562V316.789V366.57C135.417 369.926 138.61 372.464 142.536 372.241L482.252 352.769C485.142 352.603 487.479 350.145 487.479 347.275V303.219V154.134C487.482 151.267 485.145 148.845 482.252 148.727Z" fill="#D8DEE8"/>
<path d="M479.728 336.46L146.219 352.894C142.717 353.066 139.872 350.756 139.872 347.735V143.529C139.872 140.508 142.717 138.163 146.219 138.291L479.731 150.648C482.347 150.746 484.465 152.934 484.465 155.54V331.509C484.462 334.115 482.347 336.33 479.728 336.46Z" fill="url(#paint15_linear)"/>
<path opacity="0.6" d="M229.416 159.859L153.252 157.621V150.372L229.416 152.833V159.859Z" fill="white"/>
<path opacity="0.36" d="M265.286 158.907L247.693 158.374V153.423L265.286 153.989V158.907Z" fill="white"/>
<path opacity="0.36" d="M265.286 165.735L247.693 165.255V160.304L265.286 160.82V165.735Z" fill="white"/>
<path d="M352.971 168.134L284.71 166.266V161.392L352.971 163.399V168.134Z" fill="url(#paint16_linear)"/>
<path opacity="0.5" d="M364.164 174.982L296.581 173.331V168.481L364.164 170.271V174.982Z" fill="url(#paint17_linear)"/>
<path opacity="0.5" d="M364.164 181.529L296.581 180.073V175.22L364.164 176.818V181.529Z" fill="url(#paint18_linear)"/>
<path opacity="0.6" d="M364.164 188.075L296.581 186.812V181.961L364.164 183.364V188.075Z" fill="white"/>
<path opacity="0.36" d="M265.286 172.566L247.693 172.136V167.185L265.286 167.651V172.566Z" fill="white"/>
<path opacity="0.36" d="M265.286 179.397L247.693 179.017V174.066L265.286 174.481V179.397Z" fill="white"/>
<path opacity="0.36" d="M265.286 186.228L247.693 185.899V180.947L265.286 181.312V186.228Z" fill="white"/>
<path opacity="0.36" d="M265.286 193.058L247.693 192.78V187.829L265.286 188.143V193.058Z" fill="white"/>
<path opacity="0.6" d="M312.434 193.803L269.127 193.121V188.211L312.434 188.985V193.803Z" fill="white"/>
<path opacity="0.36" d="M265.286 199.889L247.693 199.664V194.71L265.286 194.974V199.889Z" fill="white"/>
<path opacity="0.36" d="M265.286 206.72L247.693 206.545V201.591L265.286 201.804V206.72Z" fill="white"/>
<path opacity="0.36" d="M265.286 213.551L247.693 213.426V208.472L265.286 208.635V213.551Z" fill="white"/>
<path opacity="0.5" d="M332.728 200.758L284.71 200.138V195.264L332.728 195.982V200.758Z" fill="url(#paint19_linear)"/>
<path opacity="0.6" d="M357.672 207.645L296.581 207.034V202.181L357.672 202.919V207.645Z" fill="white"/>
<path d="M357.672 214.209L296.581 213.773V208.923L357.672 209.483V214.209Z" fill="url(#paint20_linear)"/>
<path opacity="0.36" d="M265.286 220.381L247.693 220.307V215.353L265.286 215.466V220.381Z" fill="white"/>
<path opacity="0.36" d="M265.286 227.212L247.693 227.189V222.234L265.286 222.294V227.212Z" fill="white"/>
<path opacity="0.36" d="M265.286 234.043L247.693 234.07V229.116L265.286 229.124V234.043Z" fill="white"/>
<path opacity="0.36" d="M265.286 240.874L247.693 240.951V235.997L265.286 235.955V240.874Z" fill="white"/>
<path opacity="0.36" d="M265.286 247.702L247.693 247.832V242.878L265.286 242.786V247.702Z" fill="white"/>
<path opacity="0.36" d="M265.286 254.532L247.693 254.713V249.759L265.286 249.617V254.532Z" fill="white"/>
<path opacity="0.36" d="M265.286 261.363L247.693 261.594V256.64L265.286 256.448V261.363Z" fill="white"/>
<path opacity="0.36" d="M265.286 268.194L247.693 268.476V263.521L265.286 263.278V268.194Z" fill="white"/>
<path opacity="0.36" d="M265.286 275.025L247.693 275.357V270.406L265.286 270.109V275.025Z" fill="white"/>
<path opacity="0.36" d="M265.286 281.855L247.693 282.238V277.287L265.286 276.94V281.855Z" fill="white"/>
<path opacity="0.36" d="M265.286 288.686L247.693 289.119V284.168L265.286 283.771V288.686Z" fill="white"/>
<path opacity="0.36" d="M265.286 295.517L247.693 296V291.049L265.286 290.601V295.517Z" fill="white"/>
<path opacity="0.36" d="M265.286 302.348L247.693 302.881V297.93L265.286 297.432V302.348Z" fill="white"/>
<path opacity="0.36" d="M265.286 309.178L247.693 309.762V304.811L265.286 304.263V309.178Z" fill="white"/>
<path opacity="0.36" d="M265.286 316.009L247.693 316.644V311.693L265.286 311.091V316.009Z" fill="white"/>
<path opacity="0.36" d="M265.286 322.84L247.693 323.525V318.574L265.286 317.922V322.84Z" fill="white"/>
<path opacity="0.36" d="M265.286 329.671L247.693 330.406V325.455L265.286 324.752V329.671Z" fill="white"/>
<path opacity="0.36" d="M265.286 336.499L247.693 337.287V332.336L265.286 331.583V336.499Z" fill="white"/>
<path opacity="0.5" d="M316.993 160.467L269.005 159.017V154.111L316.993 155.658V160.467Z" fill="url(#paint21_linear)"/>
<path opacity="0.6" d="M352.971 299.682L284.71 301.758V296.881L352.971 294.948V299.682Z" fill="white"/>
<path opacity="0.5" d="M364.164 305.888L296.581 308.135V303.285L364.164 301.177V305.888Z" fill="url(#paint22_linear)"/>
<path opacity="0.5" d="M364.164 312.431L296.581 314.877V310.026L364.164 307.72V312.431Z" fill="url(#paint23_linear)"/>
<path opacity="0.5" d="M393.288 317.838L327.453 320.412V315.624L393.288 313.19V317.838Z" fill="url(#paint24_linear)"/>
<path d="M393.288 324.302L327.453 327.062V322.274L393.288 319.65V324.302Z" fill="url(#paint25_linear)"/>
<path opacity="0.6" d="M393.288 330.762L327.453 333.712V328.927L393.288 326.11V330.762Z" fill="white"/>
<path opacity="0.5" d="M316.993 294.094L269.005 295.413V290.506L316.993 289.285V294.094Z" fill="url(#paint26_linear)"/>
<path opacity="0.5" d="M352.971 227.331L284.71 227.239V222.362L352.971 222.596V227.331Z" fill="url(#paint27_linear)"/>
<path opacity="0.6" d="M364.164 233.889L296.581 233.993V229.142L364.164 229.178V233.889Z" fill="white"/>
<path opacity="0.5" d="M364.164 240.435L296.581 240.734V235.884L364.164 235.724V240.435Z" fill="url(#paint28_linear)"/>
<path opacity="0.5" d="M364.164 246.981L296.581 247.473V242.623L364.164 242.27V246.981Z" fill="url(#paint29_linear)"/>
<path opacity="0.5" d="M312.434 254.052L269.127 254.494V249.587L312.434 249.234V254.052Z" fill="url(#paint30_linear)"/>
<path opacity="0.6" d="M332.728 260.483L284.71 261.111V256.234L332.728 255.706V260.483Z" fill="white"/>
<path d="M357.672 266.72L296.581 267.696V262.843L357.672 261.995V266.72Z" fill="url(#paint31_linear)"/>
<path opacity="0.5" d="M357.672 273.284L296.581 274.435V269.584L357.672 268.559V273.284Z" fill="url(#paint32_linear)"/>
<path opacity="0.5" d="M371.215 279.552L310.86 280.865V276.045L371.215 274.856V279.552Z" fill="url(#paint33_linear)"/>
<path opacity="0.5" d="M371.215 286.077L310.86 287.563V282.742L371.215 281.381V286.077Z" fill="url(#paint34_linear)"/>
<path d="M316.993 220.601L269.005 220.396V215.487L316.993 215.792V220.601Z" fill="url(#paint35_linear)"/>
<path d="M229.416 170.838L185.82 169.755V162.602L229.416 163.811V170.838Z" fill="white"/>
<path opacity="0.6" d="M174.546 169.477L182.755 169.681V162.519L174.546 162.29V169.477Z" fill="white"/>
<path opacity="0.6" d="M229.416 180.939L185.82 180.04V172.886L229.416 173.912V180.939Z" fill="white"/>
<path opacity="0.6" d="M174.546 179.809L182.755 179.978V172.815L174.546 172.622V179.809Z" fill="white"/>
<path opacity="0.6" d="M229.416 191.039L185.82 190.325V183.171L229.416 184.013V191.039Z" fill="white"/>
<path opacity="0.6" d="M174.546 190.138L182.755 190.275V183.112L174.546 182.952V190.138Z" fill="white"/>
<path d="M229.416 262.736L153.252 263.759V256.51L229.416 255.709V262.736Z" fill="white"/>
<path opacity="0.6" d="M229.416 273.714L185.82 274.5V267.346L229.416 266.688V273.714Z" fill="white"/>
<path opacity="0.6" d="M174.546 274.704L182.755 274.556V267.393L174.546 267.515V274.704Z" fill="white"/>
<path opacity="0.6" d="M229.416 283.815L185.82 284.785V277.631L229.416 276.789V283.815Z" fill="white"/>
<path opacity="0.6" d="M174.546 285.034L182.755 284.853V277.69L174.546 277.847V285.034Z" fill="white"/>
<path opacity="0.6" d="M229.416 293.916L185.82 295.066V287.912L229.416 286.89V293.916Z" fill="white"/>
<path opacity="0.6" d="M174.546 295.366L182.755 295.149V287.987L174.546 288.179V295.366Z" fill="white"/>
<path d="M229.416 201.209L153.252 200.281V193.032L229.416 194.182V201.209Z" fill="white"/>
<path opacity="0.6" d="M229.416 212.187L185.82 211.855V204.701L229.416 205.16V212.187Z" fill="white"/>
<path opacity="0.6" d="M174.546 211.772L182.755 211.831V204.668L174.546 204.582V211.772Z" fill="white"/>
<path opacity="0.6" d="M229.416 222.288L185.82 222.14V214.986L229.416 215.261V222.288Z" fill="white"/>
<path opacity="0.6" d="M174.546 222.101L182.755 222.131V214.968L174.546 214.914V222.101Z" fill="white"/>
<path opacity="0.6" d="M229.416 242.62L185.82 242.842V235.688L229.416 235.594V242.62Z" fill="white"/>
<path opacity="0.6" d="M174.546 242.899L182.755 242.857V235.694L174.546 235.712V242.899Z" fill="white"/>
<path opacity="0.6" d="M229.416 252.721L185.82 253.124V245.97L229.416 245.694V252.721Z" fill="white"/>
<path opacity="0.6" d="M174.546 253.231L182.755 253.154V245.991L174.546 246.041V253.231Z" fill="white"/>
<path opacity="0.6" d="M229.416 232.389L185.82 232.424V225.27L229.416 225.362V232.389Z" fill="white"/>
<path opacity="0.6" d="M174.546 232.433L182.755 232.427V225.264L174.546 225.247V232.433Z" fill="white"/>
<path d="M229.416 304.011L153.252 306.347V299.095L229.416 296.984V304.011Z" fill="white"/>
<path opacity="0.6" d="M229.416 314.992L185.82 316.525V309.371L229.416 307.966V314.992Z" fill="white"/>
<path opacity="0.6" d="M174.546 316.922L182.755 316.635V309.472L174.546 309.736V316.922Z" fill="white"/>
<path opacity="0.6" d="M229.416 325.093L185.82 326.81V319.656L229.416 318.067V325.093Z" fill="white"/>
<path opacity="0.6" d="M174.546 327.255L182.755 326.931V319.769L174.546 320.068V327.255Z" fill="white"/>
<path opacity="0.6" d="M229.416 335.191L185.82 337.094V329.941L229.416 328.165V335.191Z" fill="white"/>
<path opacity="0.6" d="M174.546 337.587L182.755 337.228V330.065L174.546 330.4V337.587Z" fill="white"/>
<path opacity="0.6" d="M238.673 334.824L236.995 334.898V153.076L238.673 153.129V334.824Z" fill="white"/>
<path opacity="0.6" d="M446.788 343.276C372.837 344.821 356.205 355.36 335.193 342.73C306.319 325.375 319.467 294.503 291.336 278.31C255.967 257.951 215.19 295.235 196.728 277.058C178.345 258.956 213.072 216.349 192.969 168.857C184.902 149.8 171.166 137.419 161.674 130.321L142.533 129.494C135.188 129.177 129.177 134.03 129.177 140.319V366.908C129.177 373.196 135.185 377.952 142.533 377.516L482.249 357.299C487.642 356.979 492.008 352.369 492.008 347.02V343.593C481.83 343.237 466.06 342.873 446.788 343.276Z" fill="white"/>
<path d="M476.514 338.635L311.297 375.872C307.213 376.791 303.866 374.188 303.866 370.044V127.243C303.866 123.101 307.213 120.309 311.297 120.999L476.514 148.981C478.75 149.36 480.547 152.114 480.547 155.135V332.252C480.547 335.276 478.75 338.131 476.514 338.635Z" fill="white"/>
<path d="M480.274 338.636L315.057 375.873C310.973 376.792 307.626 374.189 307.626 370.044V127.244C307.626 123.099 310.973 120.309 315.057 121L480.274 148.981C482.51 149.361 484.307 152.115 484.307 155.136V332.253C484.307 335.277 482.51 338.132 480.274 338.636Z" fill="url(#paint36_linear)"/>
<g opacity="0.3">
<path opacity="0.3" d="M459.089 305.674C438.633 282.638 452.713 245.306 434.029 235.626C418.485 227.571 401.844 249.842 387.039 242.193C367.788 232.246 385.667 189.29 366.677 156.195C359.911 144.401 346.71 130.805 318.312 121.549L315.057 120.997C310.973 120.307 307.626 123.096 307.626 127.241V370.042C307.626 374.186 310.973 376.789 315.057 375.87L480.274 338.633C482.51 338.129 484.307 335.274 484.307 332.253V320.003C474.15 317.438 465.484 312.872 459.089 305.674Z" fill="url(#paint37_linear)"/>
</g>
<path opacity="0.68" d="M476.627 161.558L320.892 139.426C319.488 139.228 318.347 141.045 318.347 143.488V193.245C318.347 195.688 319.491 197.725 320.892 197.799L476.627 205.724C477.429 205.765 478.073 204.31 478.073 202.474V165.089C478.073 163.251 477.429 161.671 476.627 161.558Z" fill="white"/>
<path opacity="0.68" d="M320.892 197.796L376.597 200.63C376.172 186.245 374.782 170.322 366.677 156.195C364.548 152.483 361.777 148.59 358.1 144.712L320.892 139.426C319.488 139.228 318.347 141.045 318.347 143.488V193.245C318.344 195.685 319.488 197.725 320.892 197.796Z" fill="white"/>
<path d="M369.596 253.195L322.066 255.033C320.019 255.113 318.347 253.477 318.347 251.381V214.203C318.347 212.107 320.016 210.458 322.066 210.524L369.596 212C371.34 212.053 372.745 213.654 372.745 215.573V249.602C372.745 251.52 371.34 253.13 369.596 253.195Z" fill="url(#paint38_linear)"/>
<path d="M369.596 299.493L322.066 305.051C320.019 305.292 318.347 303.788 318.347 301.692V264.515C318.347 262.418 320.016 260.64 322.066 260.545L369.596 258.298C371.34 258.214 372.745 259.703 372.745 261.621V295.65C372.745 297.568 371.34 299.288 369.596 299.493Z" fill="white"/>
<path d="M369.596 345.772L322.066 355.052C320.019 355.452 318.347 354.079 318.347 351.983V314.806C318.347 312.709 320.016 310.8 322.066 310.545L369.596 304.577C371.34 304.358 372.745 305.736 372.745 307.655V341.684C372.745 343.602 371.34 345.431 369.596 345.772Z" fill="white"/>
<path d="M477.853 324.637L375.697 344.58V212.19L477.853 215.362V324.637Z" fill="url(#paint39_linear)"/>
<path d="M477.853 324.637L375.697 344.58V324.503L477.853 308.064V324.637Z" fill="url(#paint40_linear)"/>
<path d="M441.175 265.398C441.175 276.436 436.958 285.831 431.659 286.394C426.254 286.967 421.79 278.158 421.79 266.706C421.79 255.256 426.254 245.843 431.659 245.686C436.958 245.534 441.175 254.36 441.175 265.398Z" fill="url(#paint41_linear)"/>
<path opacity="0.68" d="M427.837 278.147V254.449L438.962 265.546L427.837 278.147Z" fill="white"/>
<path opacity="0.68" d="M476.092 318.337L378.26 336.098V332.876L476.092 315.656V318.337Z" fill="white"/>
<path d="M406.385 330.993L378.26 336.098V332.876L406.385 327.927V330.993Z" fill="url(#paint42_linear)"/>
<path d="M407.249 329.306C407.249 331.844 406.225 334.091 404.954 334.328C403.676 334.568 402.637 332.689 402.637 330.13C402.637 327.572 403.676 325.321 404.954 325.105C406.222 324.889 407.249 326.768 407.249 329.306Z" fill="white"/>
<path opacity="0.3" d="M459.089 305.674C438.633 282.638 452.713 245.306 434.029 235.626C418.485 227.571 401.844 249.842 387.039 242.193C378.295 237.675 377.211 226.346 376.852 212.225L375.697 212.19V344.583L477.853 324.637V318.016C470.464 315.304 464.079 311.295 459.089 305.674Z" fill="url(#paint43_linear)"/>
<path d="M193.212 439.749C193.019 439.749 192.862 439.591 192.862 439.399V301.515C192.862 301.322 193.019 301.165 193.212 301.165C193.405 301.165 193.562 301.322 193.562 301.515V439.396C193.562 439.591 193.405 439.749 193.212 439.749Z" fill="#999999"/>
<path d="M155.999 431.086C155.806 431.086 155.648 430.929 155.648 430.736V298.037C155.648 297.844 155.806 297.687 155.999 297.687C156.192 297.687 156.349 297.844 156.349 298.037V430.736C156.349 430.929 156.192 431.086 155.999 431.086Z" fill="#999999"/>
<path d="M69.9657 437.264C69.9271 437.264 69.8855 437.258 69.8469 437.243C69.6657 437.178 69.5707 436.977 69.636 436.796L119.379 299.97C119.445 299.789 119.647 299.694 119.828 299.759C120.009 299.825 120.104 300.026 120.039 300.207L70.2954 437.036C70.2449 437.175 70.1082 437.264 69.9657 437.264Z" fill="#999999"/>
<path d="M106.689 447.973C106.653 447.973 106.621 447.967 106.585 447.958C106.401 447.902 106.297 447.706 106.353 447.522L150.997 303.264C151.054 303.08 151.25 302.976 151.437 303.033C151.621 303.089 151.725 303.285 151.669 303.468L107.025 447.727C106.977 447.875 106.837 447.973 106.689 447.973Z" fill="#999999"/>
<path d="M156.409 297.901L193.738 300.658V301.497L151.075 303.406L119.189 299.504V298.668L156.409 297.901Z" fill="#999999"/>
<path d="M156.409 297.062L193.738 300.658L151.075 302.567L119.189 298.668L156.409 297.062Z" fill="#C2C2C2"/>
<path d="M116.347 416.763C116.317 416.763 116.288 416.76 116.258 416.751L80.7139 407.442C80.5268 407.391 80.4139 407.202 80.4644 407.015C80.5149 406.828 80.705 406.715 80.8921 406.766L116.436 416.075C116.623 416.125 116.736 416.315 116.686 416.502C116.644 416.659 116.502 416.763 116.347 416.763Z" fill="#999999"/>
<path d="M126.415 384.109C126.394 384.109 126.374 384.106 126.353 384.103L91.471 377.937C91.2809 377.904 91.1532 377.72 91.1859 377.531C91.2185 377.341 91.4027 377.213 91.5928 377.246L126.475 383.413C126.665 383.445 126.792 383.629 126.76 383.819C126.73 383.991 126.582 384.109 126.415 384.109Z" fill="#999999"/>
<path d="M136.884 350.403C136.869 350.403 136.855 350.403 136.84 350.4L103.08 346.057C102.887 346.033 102.754 345.858 102.778 345.666C102.801 345.473 102.979 345.342 103.17 345.363L136.929 349.707C137.122 349.73 137.256 349.905 137.232 350.098C137.208 350.276 137.059 350.403 136.884 350.403Z" fill="#999999"/>
<path d="M143.593 327.014C143.576 327.014 143.558 327.011 143.54 327.011L111.8 322.054C111.61 322.025 111.479 321.847 111.509 321.654C111.539 321.464 111.72 321.337 111.91 321.364L143.65 326.321C143.84 326.35 143.971 326.528 143.941 326.721C143.911 326.89 143.763 327.014 143.593 327.014Z" fill="#999999"/>
<path d="M392.049 233.281C391.847 233.281 391.663 233.151 391.601 232.949L360.01 129.589C359.912 129.263 359.641 129.029 359.306 128.97L359.214 128.943L358.046 128.486C357.806 128.391 357.687 128.119 357.779 127.878C357.874 127.638 358.147 127.517 358.388 127.612L359.514 128.05C360.179 128.181 360.71 128.661 360.909 129.31L392.501 232.67C392.575 232.919 392.435 233.18 392.189 233.254C392.141 233.272 392.097 233.281 392.049 233.281Z" fill="url(#paint44_linear)"/>
<rect x="658" y="411" width="60" height="61" fill="white"/>
<defs>
<linearGradient id="paint0_linear" x1="179.003" y1="77.674" x2="426.692" y2="77.674" gradientUnits="userSpaceOnUse">
<stop stop-color="#FFC444"/>
<stop offset="0.9964" stop-color="#F36F56"/>
</linearGradient>
<linearGradient id="paint1_linear" x1="318.267" y1="17.6207" x2="259.751" y2="199.99" gradientUnits="userSpaceOnUse">
<stop stop-color="#FF9085"/>
<stop offset="1" stop-color="#FB6FBB"/>
</linearGradient>
<linearGradient id="paint2_linear" x1="332.787" y1="21.1258" x2="273.318" y2="206.461" gradientUnits="userSpaceOnUse">
<stop stop-color="#FF9085"/>
<stop offset="1" stop-color="#FB6FBB"/>
</linearGradient>
<linearGradient id="paint3_linear" x1="357.789" y1="28.0689" x2="297.635" y2="215.544" gradientUnits="userSpaceOnUse">
<stop stop-color="#FF9085"/>
<stop offset="1" stop-color="#FB6FBB"/>
</linearGradient>
<linearGradient id="paint4_linear" x1="373.86" y1="32.3204" x2="312.752" y2="222.772" gradientUnits="userSpaceOnUse">
<stop stop-color="#FF9085"/>
<stop offset="1" stop-color="#FB6FBB"/>
</linearGradient>
<linearGradient id="paint5_linear" x1="400.602" y1="39.7546" x2="338.822" y2="232.294" gradientUnits="userSpaceOnUse">
<stop stop-color="#FF9085"/>
<stop offset="1" stop-color="#FB6FBB"/>
</linearGradient>
<linearGradient id="paint6_linear" x1="341.796" y1="234.759" x2="122.569" y2="502.111" gradientUnits="userSpaceOnUse">
<stop stop-color="#FF9085"/>
<stop offset="1" stop-color="#FB6FBB"/>
</linearGradient>
<linearGradient id="paint7_linear" x1="232.805" y1="184.392" x2="66.9143" y2="386.699" gradientUnits="userSpaceOnUse">
<stop stop-color="#AA80F9"/>
<stop offset="0.9964" stop-color="#6165D7"/>
</linearGradient>
<linearGradient id="paint8_linear" x1="526.406" y1="125.851" x2="361.615" y2="326.818" gradientUnits="userSpaceOnUse">
<stop stop-color="#AA80F9"/>
<stop offset="0.9964" stop-color="#6165D7"/>
</linearGradient>
<linearGradient id="paint9_linear" x1="511.137" y1="90.9875" x2="394.845" y2="232.809" gradientUnits="userSpaceOnUse">
<stop stop-color="#FF9085"/>
<stop offset="1" stop-color="#FB6FBB"/>
</linearGradient>
<linearGradient id="paint10_linear" x1="507.752" y1="205.071" x2="372.067" y2="370.542" gradientUnits="userSpaceOnUse">
<stop stop-color="#FF9085"/>
<stop offset="1" stop-color="#FB6FBB"/>
</linearGradient>
<linearGradient id="paint11_linear" x1="592.678" y1="277.64" x2="532.778" y2="350.688" gradientUnits="userSpaceOnUse">
<stop stop-color="#AA80F9"/>
<stop offset="0.9964" stop-color="#6165D7"/>
</linearGradient>
<linearGradient id="paint12_linear" x1="457.788" y1="308.079" x2="610.422" y2="308.079" gradientUnits="userSpaceOnUse">
<stop stop-color="#ED1C24"/>
<stop offset="0.9964" stop-color="#F36F56"/>
</linearGradient>
<linearGradient id="paint13_linear" x1="440.457" y1="342.611" x2="536.113" y2="342.611" gradientUnits="userSpaceOnUse">
<stop stop-color="#ED1C24"/>
<stop offset="0.9964" stop-color="#F36F56"/>
</linearGradient>
<linearGradient id="paint14_linear" x1="329.476" y1="366.781" x2="329.476" y2="404.486" gradientUnits="userSpaceOnUse">
<stop offset="0.494" stop-color="#EBEFF2"/>
<stop offset="1" stop-color="white"/>
</linearGradient>
<linearGradient id="paint15_linear" x1="225.951" y1="93.7697" x2="386.081" y2="387.981" gradientUnits="userSpaceOnUse">
<stop stop-color="#444B8C"/>
<stop offset="0.9964" stop-color="#26264F"/>
</linearGradient>
<linearGradient id="paint16_linear" x1="311.574" y1="120.63" x2="340.298" y2="296.015" gradientUnits="userSpaceOnUse">
<stop offset="0.00359712" stop-color="#E38DDD"/>
<stop offset="1" stop-color="#9571F6"/>
</linearGradient>
<linearGradient id="paint17_linear" x1="296.581" y1="171.732" x2="364.163" y2="171.732" gradientUnits="userSpaceOnUse">
<stop stop-color="#FF9085"/>
<stop offset="1" stop-color="#FB6FBB"/>
</linearGradient>
<linearGradient id="paint18_linear" x1="296.581" y1="178.375" x2="364.163" y2="178.375" gradientUnits="userSpaceOnUse">
<stop stop-color="#FF9085"/>
<stop offset="1" stop-color="#FB6FBB"/>
</linearGradient>
<linearGradient id="paint19_linear" x1="284.709" y1="198.011" x2="332.726" y2="198.011" gradientUnits="userSpaceOnUse">
<stop stop-color="#FF9085"/>
<stop offset="1" stop-color="#FB6FBB"/>
</linearGradient>
<linearGradient id="paint20_linear" x1="312.188" y1="120.735" x2="338.47" y2="281.211" gradientUnits="userSpaceOnUse">
<stop offset="0.00359712" stop-color="#E38DDD"/>
<stop offset="1" stop-color="#9571F6"/>
</linearGradient>
<linearGradient id="paint21_linear" x1="269.006" y1="157.289" x2="316.992" y2="157.289" gradientUnits="userSpaceOnUse">
<stop stop-color="#FF9085"/>
<stop offset="1" stop-color="#FB6FBB"/>
</linearGradient>
<linearGradient id="paint22_linear" x1="296.581" y1="304.656" x2="364.163" y2="304.656" gradientUnits="userSpaceOnUse">
<stop stop-color="#FF9085"/>
<stop offset="1" stop-color="#FB6FBB"/>
</linearGradient>
<linearGradient id="paint23_linear" x1="296.581" y1="311.299" x2="364.163" y2="311.299" gradientUnits="userSpaceOnUse">
<stop stop-color="#FF9085"/>
<stop offset="1" stop-color="#FB6FBB"/>
</linearGradient>
<linearGradient id="paint24_linear" x1="327.454" y1="316.8" x2="393.286" y2="316.8" gradientUnits="userSpaceOnUse">
<stop stop-color="#FF9085"/>
<stop offset="1" stop-color="#FB6FBB"/>
</linearGradient>
<linearGradient id="paint25_linear" x1="332.681" y1="154.881" x2="353.21" y2="280.228" gradientUnits="userSpaceOnUse">
<stop offset="0.00359712" stop-color="#E38DDD"/>
<stop offset="1" stop-color="#9571F6"/>
</linearGradient>
<linearGradient id="paint26_linear" x1="269.006" y1="292.35" x2="316.992" y2="292.35" gradientUnits="userSpaceOnUse">
<stop stop-color="#FF9085"/>
<stop offset="1" stop-color="#FB6FBB"/>
</linearGradient>
<linearGradient id="paint27_linear" x1="284.709" y1="224.846" x2="352.97" y2="224.846" gradientUnits="userSpaceOnUse">
<stop stop-color="#FF9085"/>
<stop offset="1" stop-color="#FB6FBB"/>
</linearGradient>
<linearGradient id="paint28_linear" x1="296.581" y1="238.229" x2="364.163" y2="238.229" gradientUnits="userSpaceOnUse">
<stop stop-color="#FF9085"/>
<stop offset="1" stop-color="#FB6FBB"/>
</linearGradient>
<linearGradient id="paint29_linear" x1="296.581" y1="244.872" x2="364.163" y2="244.872" gradientUnits="userSpaceOnUse">
<stop stop-color="#FF9085"/>
<stop offset="1" stop-color="#FB6FBB"/>
</linearGradient>
<linearGradient id="paint30_linear" x1="269.126" y1="251.864" x2="312.435" y2="251.864" gradientUnits="userSpaceOnUse">
<stop stop-color="#FF9085"/>
<stop offset="1" stop-color="#FB6FBB"/>
</linearGradient>
<linearGradient id="paint31_linear" x1="305.188" y1="131.356" x2="329.045" y2="277.028" gradientUnits="userSpaceOnUse">
<stop offset="0.00359712" stop-color="#E38DDD"/>
<stop offset="1" stop-color="#9571F6"/>
</linearGradient>
<linearGradient id="paint32_linear" x1="296.581" y1="271.497" x2="357.672" y2="271.497" gradientUnits="userSpaceOnUse">
<stop stop-color="#FF9085"/>
<stop offset="1" stop-color="#FB6FBB"/>
</linearGradient>
<linearGradient id="paint33_linear" x1="310.859" y1="277.861" x2="371.216" y2="277.861" gradientUnits="userSpaceOnUse">
<stop stop-color="#FF9085"/>
<stop offset="1" stop-color="#FB6FBB"/>
</linearGradient>
<linearGradient id="paint34_linear" x1="310.859" y1="284.473" x2="371.216" y2="284.473" gradientUnits="userSpaceOnUse">
<stop stop-color="#FF9085"/>
<stop offset="1" stop-color="#FB6FBB"/>
</linearGradient>
<linearGradient id="paint35_linear" x1="277.713" y1="125.085" x2="304.152" y2="286.518" gradientUnits="userSpaceOnUse">
<stop offset="0.00359712" stop-color="#E38DDD"/>
<stop offset="1" stop-color="#9571F6"/>
</linearGradient>
<linearGradient id="paint36_linear" x1="331.366" y1="144.205" x2="483.319" y2="423.394" gradientUnits="userSpaceOnUse">
<stop stop-color="#FFC444"/>
<stop offset="0.9964" stop-color="#F36F56"/>
</linearGradient>
<linearGradient id="paint37_linear" x1="307.625" y1="248.476" x2="484.306" y2="248.476" gradientUnits="userSpaceOnUse">
<stop stop-color="#ED1C24"/>
<stop offset="0.9964" stop-color="#F36F56"/>
</linearGradient>
<linearGradient id="paint38_linear" x1="343.615" y1="228.602" x2="379.363" y2="319.112" gradientUnits="userSpaceOnUse">
<stop stop-color="#FF9085"/>
<stop offset="1" stop-color="#FB6FBB"/>
</linearGradient>
<linearGradient id="paint39_linear" x1="439.892" y1="247.92" x2="359.018" y2="374.71" gradientUnits="userSpaceOnUse">
<stop stop-color="#AA80F9"/>
<stop offset="0.9964" stop-color="#6165D7"/>
</linearGradient>
<linearGradient id="paint40_linear" x1="435.588" y1="310.801" x2="393.283" y2="377.124" gradientUnits="userSpaceOnUse">
<stop stop-color="#444B8C"/>
<stop offset="0.9964" stop-color="#26264F"/>
</linearGradient>
<linearGradient id="paint41_linear" x1="440.759" y1="248.223" x2="388.836" y2="348.326" gradientUnits="userSpaceOnUse">
<stop stop-color="#444B8C"/>
<stop offset="0.9964" stop-color="#26264F"/>
</linearGradient>
<linearGradient id="paint42_linear" x1="392.777" y1="287.486" x2="391.474" y2="415.372" gradientUnits="userSpaceOnUse">
<stop stop-color="#AA80F9"/>
<stop offset="0.9964" stop-color="#6165D7"/>
</linearGradient>
<linearGradient id="paint43_linear" x1="424.402" y1="272.12" x2="363.557" y2="367.509" gradientUnits="userSpaceOnUse">
<stop stop-color="#AA80F9"/>
<stop offset="0.9964" stop-color="#6165D7"/>
</linearGradient>
<linearGradient id="paint44_linear" x1="357.748" y1="180.43" x2="392.52" y2="180.43" gradientUnits="userSpaceOnUse">
<stop stop-color="#444B8C"/>
<stop offset="0.9964" stop-color="#26264F"/>
</linearGradient>
</defs>
</svg>
