<svg width="433" height="288" viewBox="0 0 433 288" fill="none" xmlns="http://www.w3.org/2000/svg">
<path d="M255.833 170.009C284.643 170.85 305.322 173.457 331.698 176.854C353.939 179.72 432.24 189.808 431.971 199.09C431.745 206.845 376.791 209.441 376.868 217.71C376.908 222.082 392.288 223.734 392.17 226.757C391.972 231.802 348.803 236.936 295.376 234.208C242.683 231.517 232.678 223.868 171.642 216.232C92.9206 206.382 52.7194 211.998 52.0693 205.084C51.2498 196.352 114.706 180.242 167.259 173.753C175.757 172.704 210.143 168.674 255.833 170.009Z" fill="#EBEFF2"/>
<path d="M216.247 183.714C212.596 182.503 209.868 179.406 209.099 175.597L203.786 149.3L158.333 150.914L152.74 178.312C151.956 182.148 155.093 185.998 158.704 187.411L177.722 194.852C181.259 196.235 185.061 196.787 188.84 196.464L229.029 193.027C230.205 192.927 231.145 192.002 231.283 190.819C231.42 189.635 232.243 188.304 231.123 187.931L216.247 183.714Z" fill="#97A6B7"/>
<path d="M216.695 182.114C213.048 180.918 210.322 177.859 209.553 174.099L204.244 148.132L159.9 149.729L154.312 176.781C153.529 180.569 155.599 184.37 159.208 185.765L178.206 193.112C181.739 194.479 185.537 195.023 189.312 194.705L229.459 191.309C230.633 191.209 231.574 190.298 231.711 189.129C231.849 187.959 231.141 186.855 230.023 186.488L216.695 182.114Z" fill="url(#paint0_linear)"/>
<path d="M65.454 166.777C60.5258 167.07 56.4923 163.874 56.4923 159.647V7.33975C56.4923 3.11298 60.5238 -0.149269 65.454 0.0639627L294.391 15.9129C298.01 16.0703 299.951 13.1488 299.951 16.7419V146.279C299.951 149.872 297.022 152.971 293.403 153.188L65.454 166.777Z" fill="#97A6B7"/>
<path d="M67.5027 166.777C62.5744 167.07 58.541 163.874 58.541 159.647V7.33939C58.541 3.11261 62.5724 -0.149635 67.5027 0.0635965L295.452 9.94002C299.071 10.0975 302 13.1485 302 16.7415V146.279C302 149.872 299.071 152.971 295.452 153.188L67.5027 166.777Z" fill="white"/>
<path opacity="0.3" d="M295.452 12.989L67.5027 3.61081C64.8682 3.5032 62.7259 5.24293 62.7259 7.5008V125.956V159.418C62.7259 161.673 64.8682 163.379 67.5027 163.23L295.452 150.141C297.391 150.029 298.959 148.377 298.959 146.448V116.835V16.6239C298.961 14.6969 297.393 13.0687 295.452 12.989Z" fill="#D8DEE8"/>
<path d="M293.758 139.178L69.9737 150.225C67.6242 150.34 65.7151 148.788 65.7151 146.757V9.4956C65.7151 7.46491 67.6242 5.88859 69.9737 5.97428L293.76 14.2804C295.515 14.3461 296.936 15.8168 296.936 17.5685V135.85C296.934 137.602 295.515 139.091 293.758 139.178Z" fill="url(#paint1_linear)"/>
<path opacity="0.6" d="M125.799 20.4721L74.6927 18.9675V14.0951L125.799 15.7491V20.4721Z" fill="white"/>
<path opacity="0.36" d="M149.868 19.8324L138.062 19.4736V16.1456L149.868 16.5263V19.8324Z" fill="white"/>
<path opacity="0.36" d="M149.868 24.4218L138.062 24.099V20.771L149.868 21.1178V24.4218Z" fill="white"/>
<path d="M244 26L163 24.8918V22L244 23.1909V26Z" fill="url(#paint2_linear)"/>
<path opacity="0.5" d="M257 31L177 29.73V26L257 27.3771V31Z" fill="url(#paint3_linear)"/>
<path opacity="0.5" d="M257 35L177 34.0771V31L257 32.0132V35Z" fill="url(#paint4_linear)"/>
<path opacity="0.6" d="M257 39L177 38.1736V35L257 35.9176V39Z" fill="white"/>
<path opacity="0.36" d="M149.868 29.0133L138.062 28.7244V25.3964L149.868 25.7092V29.0133Z" fill="white"/>
<path opacity="0.36" d="M149.868 33.6047L138.062 33.3496V30.0216L149.868 30.3006V33.6047Z" fill="white"/>
<path opacity="0.36" d="M149.868 38.1962L138.062 37.975V34.647L149.868 34.8921V38.1962Z" fill="white"/>
<path opacity="0.36" d="M149.868 42.7877L138.062 42.6004V39.2723L149.868 39.4836V42.7877Z" fill="white"/>
<path opacity="0.6" d="M181.504 43.2879L152.445 42.8295V39.5294L181.504 40.0495V43.2879Z" fill="white"/>
<path opacity="0.36" d="M149.868 47.3792L138.062 47.2277V43.8977L149.868 44.0751V47.3792Z" fill="white"/>
<path opacity="0.36" d="M149.868 51.9707L138.062 51.8531V48.5231L149.868 48.6666V51.9707Z" fill="white"/>
<path opacity="0.36" d="M149.868 56.562L138.062 56.4783V53.1483L149.868 53.2579V56.562Z" fill="white"/>
<path opacity="0.5" d="M220 48L163 47.5488V44L220 44.5224V48Z" fill="url(#paint5_linear)"/>
<path opacity="0.6" d="M250 53L177 52.5529V49L250 49.5404V53Z" fill="white"/>
<path d="M250 57L177 56.6702V53L250 53.424V57Z" fill="url(#paint6_linear)"/>
<path opacity="0.36" d="M149.868 61.1535L138.062 61.1037V57.7737L149.868 57.8494V61.1535Z" fill="white"/>
<path opacity="0.36" d="M149.868 65.745L138.062 65.7291V62.399L149.868 62.4389V65.745Z" fill="white"/>
<path opacity="0.36" d="M149.868 70.3365L138.062 70.3544V67.0244L149.868 67.0304V70.3365Z" fill="white"/>
<path opacity="0.36" d="M149.868 74.9279L138.062 74.9797V71.6497L149.868 71.6218V74.9279Z" fill="white"/>
<path opacity="0.36" d="M149.868 79.5174L138.062 79.605V76.275L149.868 76.2133V79.5174Z" fill="white"/>
<path opacity="0.36" d="M149.868 84.1088L138.062 84.2303V80.9003L149.868 80.8047V84.1088Z" fill="white"/>
<path opacity="0.36" d="M149.868 88.7003L138.062 88.8558V85.5258L149.868 85.3962V88.7003Z" fill="white"/>
<path opacity="0.36" d="M149.868 93.2918L138.062 93.4811V90.1511L149.868 89.9877V93.2918Z" fill="white"/>
<path opacity="0.36" d="M149.868 97.8832L138.062 98.1064V94.7784L149.868 94.5791V97.8832Z" fill="white"/>
<path opacity="0.36" d="M149.868 102.475L138.062 102.732V99.4037L149.868 99.1705V102.475Z" fill="white"/>
<path opacity="0.36" d="M149.868 107.066L138.062 107.357V104.029L149.868 103.762V107.066Z" fill="white"/>
<path opacity="0.36" d="M149.868 111.658L138.062 111.982V108.654L149.868 108.354V111.658Z" fill="white"/>
<path opacity="0.36" d="M149.868 116.249L138.062 116.608V113.28L149.868 112.945V116.249Z" fill="white"/>
<path opacity="0.36" d="M149.868 120.84L138.062 121.233V117.905L149.868 117.536V120.84Z" fill="white"/>
<path opacity="0.36" d="M149.868 125.432L138.062 125.858V122.53L149.868 122.126V125.432Z" fill="white"/>
<path opacity="0.36" d="M149.868 130.023L138.062 130.484V127.156L149.868 126.717V130.023Z" fill="white"/>
<path opacity="0.36" d="M149.868 134.615L138.062 135.109V131.781L149.868 131.309V134.615Z" fill="white"/>
<path opacity="0.36" d="M149.868 139.204L138.062 139.734V136.406L149.868 135.9V139.204Z" fill="white"/>
<path opacity="0.5" d="M184.563 20.8806L152.363 19.9061V16.608L184.563 17.6483V20.8806Z" fill="url(#paint7_linear)"/>
<path opacity="0.6" d="M244 114.476L163 116V112.419L244 111V114.476Z" fill="white"/>
<path opacity="0.5" d="M257 118.385L177 120V116.515L257 115V118.385Z" fill="url(#paint8_linear)"/>
<path opacity="0.5" d="M257 123.291L177 125V121.611L257 120V123.291Z" fill="url(#paint9_linear)"/>
<path opacity="0.5" d="M292 126.575L214 128V125.348L292 124V126.575Z" fill="url(#paint10_linear)"/>
<path d="M292 131.138L214 133V129.77L292 128V131.138Z" fill="url(#paint11_linear)"/>
<path opacity="0.6" d="M292 135.06L214 137V133.853L292 132V135.06Z" fill="white"/>
<path opacity="0.5" d="M184.563 110.701L152.363 111.588V108.29L184.563 107.469V110.701Z" fill="url(#paint12_linear)"/>
<path opacity="0.5" d="M244 66L163 65.926V62L244 62.1885V66Z" fill="url(#paint13_linear)"/>
<path opacity="0.6" d="M257 69.9358L177 70V67L257 67.022V69.9358Z" fill="white"/>
<path opacity="0.5" d="M257 74.7609L177 75V71.1278L257 71V74.7609Z" fill="url(#paint14_linear)"/>
<path opacity="0.5" d="M257 78.7162L177 79V76.2034L257 76V78.7162Z" fill="url(#paint15_linear)"/>
<path opacity="0.5" d="M181.504 83.7861L152.445 84.083V80.7849L181.504 80.5477V83.7861Z" fill="url(#paint16_linear)"/>
<path opacity="0.6" d="M220 88.5348L163 89V85.3906L220 85V88.5348Z" fill="white"/>
<path d="M250 92.3157L177 93V89.5949L250 89V92.3157Z" fill="url(#paint17_linear)"/>
<path opacity="0.5" d="M250 96.4127L177 97V94.5237L250 94V96.4127Z" fill="url(#paint18_linear)"/>
<path opacity="0.5" d="M266 101.126L194 102V98.7913L266 98V101.126Z" fill="url(#paint19_linear)"/>
<path opacity="0.5" d="M266 105.039L194 106V102.881L266 102V105.039Z" fill="url(#paint20_linear)"/>
<path d="M184.563 61.301L152.363 61.1635V57.8634L184.563 58.0687V61.301Z" fill="url(#paint21_linear)"/>
<path d="M125.799 27.8515L96.546 27.1241V22.3154L125.799 23.1285V27.8515Z" fill="white"/>
<path opacity="0.6" d="M88.9813 26.9368L94.4894 27.0743V22.2596L88.9813 22.1062V26.9368Z" fill="white"/>
<path opacity="0.6" d="M125.799 34.641L96.546 34.0372V29.2285L125.799 29.918V34.641Z" fill="white"/>
<path opacity="0.6" d="M88.9813 33.8817L94.4894 33.9953V29.1807L88.9813 29.0511V33.8817Z" fill="white"/>
<path opacity="0.6" d="M125.799 41.4306L96.546 40.9503V36.1416L125.799 36.7076V41.4306Z" fill="white"/>
<path opacity="0.6" d="M88.9813 40.8247L94.4894 40.9164V36.1018L88.9813 35.9941V40.8247Z" fill="white"/>
<path d="M125.799 89.623L74.6927 90.3105V85.4381L125.799 84.9V89.623Z" fill="white"/>
<path opacity="0.6" d="M125.799 97.0024L96.546 97.5305V92.7218L125.799 92.2794V97.0024Z" fill="white"/>
<path opacity="0.6" d="M88.9813 97.668L94.4894 97.5683V92.7537L88.9813 92.8354V97.668Z" fill="white"/>
<path opacity="0.6" d="M125.799 103.792L96.546 104.444V99.6349L125.799 99.069V103.792Z" fill="white"/>
<path opacity="0.6" d="M88.9813 104.611L94.4894 104.489V99.6748L88.9813 99.7804V104.611Z" fill="white"/>
<path opacity="0.6" d="M125.799 110.581L96.546 111.355V106.546L125.799 105.859V110.581Z" fill="white"/>
<path opacity="0.6" d="M88.9813 111.556L94.4894 111.41V106.596L88.9813 106.725V111.556Z" fill="white"/>
<path d="M125.799 48.266L74.6927 47.6422V42.7698L125.799 43.543V48.266Z" fill="white"/>
<path opacity="0.6" d="M125.799 55.6454L96.546 55.4222V50.6135L125.799 50.9224V55.6454Z" fill="white"/>
<path opacity="0.6" d="M88.9813 55.3664L94.4894 55.4063V50.5916L88.9813 50.5338V55.3664Z" fill="white"/>
<path opacity="0.6" d="M125.799 62.4349L96.546 62.3353V57.5266L125.799 57.7119V62.4349Z" fill="white"/>
<path opacity="0.6" d="M88.9813 62.3094L94.4894 62.3293V57.5146L88.9813 57.4788V62.3094Z" fill="white"/>
<path opacity="0.6" d="M125.799 76.1017L96.546 76.2511V71.4424L125.799 71.3787V76.1017Z" fill="white"/>
<path opacity="0.6" d="M88.9813 76.289L94.4894 76.2611V71.4464L88.9813 71.4584V76.289Z" fill="white"/>
<path opacity="0.6" d="M125.799 82.8912L96.546 83.1622V78.3535L125.799 78.1682V82.8912Z" fill="white"/>
<path opacity="0.6" d="M88.9813 83.234L94.4894 83.1822V78.3676L88.9813 78.4014V83.234Z" fill="white"/>
<path opacity="0.6" d="M125.799 69.2245L96.546 69.2484V64.4397L125.799 64.5015V69.2245Z" fill="white"/>
<path opacity="0.6" d="M88.9813 69.2543L94.4894 69.2503V64.4357L88.9813 64.4237V69.2543Z" fill="white"/>
<path d="M125.799 117.367L74.6927 118.937V114.063L125.799 112.644V117.367Z" fill="white"/>
<path opacity="0.6" d="M125.799 124.748L96.546 125.779V120.97L125.799 120.025V124.748Z" fill="white"/>
<path opacity="0.6" d="M88.9813 126.046L94.4894 125.852V121.038L88.9813 121.215V126.046Z" fill="white"/>
<path opacity="0.6" d="M125.799 131.538L96.546 132.692V127.883L125.799 126.815V131.538Z" fill="white"/>
<path opacity="0.6" d="M88.9813 132.991L94.4894 132.774V127.959L88.9813 128.16V132.991Z" fill="white"/>
<path opacity="0.6" d="M125.799 138.326L96.546 139.605V134.796L125.799 133.603V138.326Z" fill="white"/>
<path opacity="0.6" d="M88.9813 139.936L94.4894 139.695V134.88L88.9813 135.105V139.936Z" fill="white"/>
<path opacity="0.6" d="M132.01 138.078L130.884 138.128V15.9125L132.01 15.9483V138.078Z" fill="white"/>
<path d="M131.062 287.707C109.607 286.948 94.2167 284.912 74.5864 282.26C58.0333 280.024 -0.242221 272.15 0.000757564 265.239C0.204452 259.463 41.1485 257.781 41.1296 251.622C41.1194 248.365 29.6718 247.065 29.7736 244.813C29.9438 241.057 62.1217 237.43 101.903 239.707C141.139 241.954 148.557 247.697 193.983 253.665C252.573 261.362 282.542 257.363 282.995 262.516C283.565 269.024 236.227 280.732 197.053 285.325C190.718 286.067 165.088 288.911 131.062 287.707Z" fill="#EBEFF2"/>
<path d="M166.087 276.202C165.91 276.202 165.766 276.058 165.766 275.881V149.5C165.766 149.324 165.91 149.18 166.087 149.18C166.264 149.18 166.408 149.324 166.408 149.5V275.878C166.408 276.058 166.264 276.202 166.087 276.202Z" fill="#999999"/>
<path d="M132.038 268.262C131.861 268.262 131.717 268.118 131.717 267.941V146.313C131.717 146.136 131.861 145.992 132.038 145.992C132.215 145.992 132.359 146.136 132.359 146.313V267.941C132.359 268.118 132.215 268.262 132.038 268.262Z" fill="#999999"/>
<path d="M53.3205 273.925C53.2852 273.925 53.2471 273.919 53.2118 273.906C53.0461 273.846 52.9591 273.661 53.0189 273.495L98.5326 148.085C98.5924 147.919 98.7772 147.832 98.9429 147.892C99.1087 147.951 99.1956 148.136 99.1359 148.302L53.6221 273.715C53.576 273.843 53.451 273.925 53.3205 273.925Z" fill="#999999"/>
<path d="M86.9212 283.74C86.8885 283.74 86.8587 283.734 86.826 283.726C86.6576 283.675 86.5625 283.495 86.6141 283.327L127.462 151.104C127.514 150.935 127.693 150.84 127.864 150.892C128.033 150.943 128.128 151.123 128.076 151.291L87.2282 283.514C87.1847 283.65 87.057 283.74 86.9212 283.74Z" fill="#999999"/>
<path d="M132.413 146.188L166.568 148.715V149.484L127.533 151.234L98.3587 147.658V146.892L132.413 146.188Z" fill="#999999"/>
<path d="M132.413 145.419L166.568 148.715L127.533 150.465L98.3587 146.892L132.413 145.419Z" fill="#C2C2C2"/>
<path d="M95.7581 255.134C95.7309 255.134 95.7037 255.131 95.6765 255.123L63.1547 246.59C62.9835 246.544 62.8802 246.37 62.9264 246.199C62.9726 246.028 63.1465 245.925 63.3177 245.971L95.8396 254.503C96.0108 254.55 96.114 254.724 96.0678 254.895C96.0298 255.039 95.8994 255.134 95.7581 255.134Z" fill="#999999"/>
<path d="M104.97 225.204C104.951 225.204 104.932 225.202 104.913 225.199L72.9972 219.547C72.8232 219.517 72.7064 219.348 72.7363 219.175C72.7662 219.001 72.9347 218.884 73.1086 218.914L105.024 224.566C105.198 224.596 105.315 224.764 105.285 224.938C105.258 225.096 105.122 225.204 104.97 225.204Z" fill="#999999"/>
<path d="M114.549 194.31C114.535 194.31 114.522 194.31 114.508 194.308L83.6195 190.327C83.4429 190.305 83.3206 190.145 83.3423 189.968C83.3641 189.791 83.5271 189.672 83.701 189.691L114.59 193.672C114.766 193.694 114.889 193.854 114.867 194.03C114.845 194.193 114.709 194.31 114.549 194.31Z" fill="#999999"/>
<path d="M120.688 172.873C120.671 172.873 120.655 172.87 120.639 172.87L91.5979 168.327C91.4239 168.299 91.3044 168.136 91.3315 167.96C91.3587 167.786 91.5245 167.669 91.6984 167.693L120.739 172.237C120.913 172.264 121.033 172.427 121.006 172.604C120.978 172.759 120.842 172.873 120.688 172.873Z" fill="#999999"/>
<path d="M158.014 79.8752L159.622 78.1197C159.921 77.7665 160.386 77.2937 161.055 76.886C162.348 76.0926 164.131 75.704 164.397 76.1551C164.699 76.6687 163.008 78.1931 162.432 78.6958C161.636 79.2746 160.84 79.8507 160.046 80.4295L158.014 79.8752Z" fill="url(#paint22_linear)"/>
<path d="M123.639 67.9431C123.201 68.1089 116.535 70.7583 115.166 77.7149C115.054 78.2774 113.984 84.2529 118.038 88.4758C122.584 93.2095 131.334 93.0926 134.81 89.1361C135.62 88.2122 136.046 87.1904 136.288 86.3317L135.372 83.8997C134.256 82.5519 132.734 82.2312 131.921 82.0328C129.919 81.5383 128.408 82.4323 127.261 81.4649C126.625 80.9296 126.5 80.1605 126.389 79.4758C126.006 77.1361 127.326 75.6959 127.421 74.2529C127.492 73.1741 127.87 70.8127 126.462 69.2719C125.571 68.2937 124.337 68.0274 123.639 67.9431Z" fill="url(#paint23_linear)"/>
<path d="M121.041 145.473C120.962 145.044 119.579 144.658 118.894 145.231C118.554 145.517 118.321 146.093 118.516 146.354C118.587 146.449 118.294 146.615 118.576 146.62C119.508 146.631 121.12 145.9 121.041 145.473Z" fill="url(#paint24_linear)"/>
<path d="M119.592 145.628L118.171 145.427C118.832 144.634 118.709 142.106 118.709 142.106L120.223 142.443C120.223 142.443 120.052 143.136 119.758 144.161C119.652 144.511 119.609 145.06 119.592 145.628Z" fill="url(#paint25_linear)"/>
<path d="M119.718 145.454C119.718 145.454 118.006 145.06 117.821 145.4C117.636 145.74 117.492 146.65 118.579 146.62C119.663 146.59 119.815 145.742 119.718 145.454Z" fill="url(#paint26_linear)"/>
<path d="M140.557 147.079C140.421 146.666 138.997 146.476 138.4 147.139C138.103 147.468 137.951 148.074 138.182 148.305C138.266 148.389 138 148.596 138.277 148.56C139.204 148.438 140.693 147.49 140.557 147.079Z" fill="url(#paint27_linear)"/>
<path d="M139.144 147.438H137.707C138.247 146.56 137.775 144.077 137.775 144.077L139.321 144.199C139.321 144.199 139.247 144.911 139.101 145.962C139.049 146.321 139.082 146.87 139.144 147.438Z" fill="url(#paint28_linear)"/>
<path d="M142.867 93.1117C143.533 95.3101 144.484 98.8563 145.095 103.307C146.84 116 143.131 116.405 143.824 130.471C144.044 134.96 139.935 145.313 139.571 145.541C139.394 145.558 139.204 145.568 139.003 145.563C138.644 145.552 138.141 145.498 137.554 145.321C136.902 145.21 134.554 138.851 135.101 135.068C135.487 132.392 135.375 129.519 135.15 123.778C135.114 122.848 132.731 105.672 132.731 105.672C132.006 112.028 131.174 117.43 130.451 121.62C128.131 135.077 120.587 143.221 120.193 143.351C120.114 143.381 119.408 143.639 118.829 143.259C118.571 143.09 118.484 142.87 118.484 142.87C118.283 142.712 118.544 129.435 120.845 119.446C124.185 104.943 122.731 101.552 123.788 95.0737C124.707 89.465 142.867 93.1117 142.867 93.1117Z" fill="url(#paint29_linear)"/>
<path d="M129.378 66.81C131.595 66.7447 136.69 65.9621 139.5 68.4866C139.549 68.5301 138.973 68.8371 139.258 69.1687C139.522 69.4757 140.424 70.5545 141.239 72.0138C141.832 73.0709 142.367 74.2991 142.905 76.1334C143.856 79.3671 144.128 82.1225 144.22 83.3209C144.734 90.0682 144.226 93.1823 143.764 95.2992C141.758 96.3291 136.592 98.1715 130.438 97.2557C127.628 96.8372 125.378 95.9024 123.794 95.0682C125.391 90.2312 124.139 87.6443 123.546 85.2584C122.704 81.8562 122.69 82.1144 121.995 79.4133C120.851 74.9567 120.66 70.3996 121.448 69.4676C123.571 66.9594 127.391 66.8697 129.378 66.81Z" fill="url(#paint30_linear)"/>
<path d="M139.245 147.245C139.245 147.245 137.495 147.093 137.359 147.457C137.223 147.818 137.207 148.74 138.28 148.557C139.351 148.378 139.381 147.517 139.245 147.245Z" fill="url(#paint31_linear)"/>
<path d="M135.617 64.2692C136.304 63.1089 135.997 61.7828 135.929 61.4948C135.641 60.2937 135.533 60.1116 135.31 59.8589L134.995 59.5247C134.995 59.5247 134.976 59.5111 134.954 59.4948C134.734 59.3453 133.916 59.098 133.739 59.0899C133.174 59.0627 132.027 61.0844 131.37 64.2013C131.315 64.3127 131.264 64.4241 131.212 64.5383C130.886 65.2448 130.606 65.9404 130.367 66.6198C126.554 66.9432 126.027 67.3888 126.011 67.647C125.976 68.1904 128.147 68.8182 129.78 69.0573C133.342 69.579 137.003 68.6388 136.986 67.9758C136.978 67.6877 136.272 67.31 133.253 66.9133C133.323 66.4133 133.394 65.9133 133.465 65.4133C133.709 65.3616 135.111 65.1225 135.617 64.2692Z" fill="url(#paint32_linear)"/>
<path d="M136.334 58.9458C136.076 59.8969 135.359 60.7937 135.084 60.8969C135.049 60.9105 134.848 60.9975 134.639 61.1822C134.611 61.2067 134.582 61.2393 134.554 61.2801C134.185 61.8236 134.951 62.7855 134.696 63.0056C134.511 63.1659 133.932 62.7312 133.81 62.8779C133.696 63.0165 134.147 63.4893 134.014 63.6551C133.913 63.7828 133.617 63.5627 133.348 63.7257C133.215 63.8073 133.223 63.9024 133.022 64.2067C132.908 64.3779 132.766 64.5627 132.669 64.6605C132.19 65.1306 131.204 65.0871 131.084 64.8154C131.052 64.7393 131.109 64.6986 131.111 64.4757C131.111 64.4757 131.117 64.2692 131.041 64.0083C130.932 63.6361 130.53 63.2828 130.149 62.8208C129.446 61.9621 129.353 61.367 129.329 61.1659C129.321 61.0953 129.318 61.0437 129.315 61.0056C129.277 60.2447 129.549 59.2121 130.035 58.6632C130.848 57.742 131.905 58.5654 133.16 57.7719C134.609 56.8589 134.38 55.0192 135.041 55.0002C135.774 54.9784 136.81 57.1877 136.334 58.9458Z" fill="#26264F"/>
<path d="M134.416 62.6904C134.269 62.3073 133.777 62.5002 133.666 62.9133C133.552 63.3263 133.84 63.8671 134.253 63.8888C134.66 63.9105 134.614 63.204 134.416 62.6904Z" fill="url(#paint33_linear)"/>
<path d="M124.497 92.0301C124.495 92.0301 124.492 92.0301 124.489 92.0301C124.443 92.0247 124.41 91.9839 124.416 91.9377C124.677 89.5817 124.19 87.8698 123.758 86.3616C123.652 85.9893 123.552 85.6361 123.465 85.2828C122.986 83.3535 122.777 82.6062 122.554 81.8181C122.41 81.3045 122.261 80.7719 122.03 79.886C122.019 79.8399 122.046 79.7964 122.09 79.7828C122.133 79.7719 122.179 79.7991 122.193 79.8426C122.424 80.7284 122.573 81.2583 122.717 81.7719C122.94 82.5627 123.149 83.31 123.628 85.242C123.715 85.5926 123.815 85.9431 123.921 86.3154C124.356 87.8399 124.848 89.5681 124.584 91.9567C124.576 92.0002 124.541 92.0301 124.497 92.0301Z" fill="#9B305E"/>
<path d="M134.41 61.9458L134.764 62.7936C134.764 62.7936 135.117 63.8127 135.584 63.4295C135.965 63.117 136.035 63.1442 136.049 63.1659C136.052 63.1686 136.052 63.1741 136.052 63.1741C136.057 63.1741 136.063 62.9703 136.065 62.7909C136.155 63.0355 136.264 63.4241 136.264 63.9078C136.264 64.3779 136.264 64.8806 135.897 65.2665C135.875 65.2882 135.476 65.6958 134.935 65.6768C134.935 65.6768 134.723 65.6686 133.916 65.2964C133.916 65.2964 135.019 64.8724 135.076 64.7176C135.231 64.2936 134.69 63.8996 134.481 62.8915C134.4 62.5029 134.4 62.1713 134.41 61.9458Z" fill="#26264F"/>
<path d="M158.905 78.6225C159.707 79.1823 160.136 79.9459 160.359 80.4323C159.769 81.8155 158.432 84.3861 155.666 86.2802C151.128 89.3861 144.476 89.4894 139.84 85.9486C134.304 81.7176 133.378 73.6062 135.704 70.1334C135.97 69.7339 136.851 68.4187 138.218 68.2692C139.082 68.1741 140.256 68.5301 142.112 70.7013C145.978 75.2285 144.612 78.0546 146.897 79.3807C150.321 81.3644 155.41 76.1769 158.905 78.6225Z" fill="url(#paint34_linear)"/>
<path d="M143.318 87.8834C143.313 87.8834 143.307 87.8834 143.299 87.8807C143.245 87.8698 137.802 86.6171 135.356 79.8725C135.34 79.829 135.362 79.7801 135.405 79.7638C135.449 79.7475 135.497 79.7692 135.514 79.8154C137.927 86.4758 143.28 87.7068 143.334 87.7176C143.381 87.7285 143.408 87.772 143.4 87.8182C143.391 87.8562 143.356 87.8834 143.318 87.8834Z" fill="#9B305E"/>
<defs>
<linearGradient id="paint0_linear" x1="192.939" y1="159.559" x2="192.939" y2="184.904" gradientUnits="userSpaceOnUse">
<stop offset="0.494" stop-color="#EBEFF2"/>
<stop offset="1" stop-color="white"/>
</linearGradient>
<linearGradient id="paint1_linear" x1="123.474" y1="-23.9516" x2="231.211" y2="173.651" gradientUnits="userSpaceOnUse">
<stop stop-color="#444B8C"/>
<stop offset="0.9964" stop-color="#26264F"/>
</linearGradient>
<linearGradient id="paint2_linear" x1="194.878" y1="-2.18473" x2="203.57" y2="103.953" gradientUnits="userSpaceOnUse">
<stop offset="0.00359712" stop-color="#E38DDD"/>
<stop offset="1" stop-color="#9571F6"/>
</linearGradient>
<linearGradient id="paint3_linear" x1="177" y1="28.5004" x2="256.998" y2="28.5004" gradientUnits="userSpaceOnUse">
<stop stop-color="#FF9085"/>
<stop offset="1" stop-color="#FB6FBB"/>
</linearGradient>
<linearGradient id="paint4_linear" x1="177" y1="33.0004" x2="256.998" y2="33.0004" gradientUnits="userSpaceOnUse">
<stop stop-color="#FF9085"/>
<stop offset="1" stop-color="#FB6FBB"/>
</linearGradient>
<linearGradient id="paint5_linear" x1="162.999" y1="46.0002" x2="219.998" y2="46.0002" gradientUnits="userSpaceOnUse">
<stop stop-color="#FF9085"/>
<stop offset="1" stop-color="#FB6FBB"/>
</linearGradient>
<linearGradient id="paint6_linear" x1="195.65" y1="-13.731" x2="208.444" y2="109.63" gradientUnits="userSpaceOnUse">
<stop offset="0.00359712" stop-color="#E38DDD"/>
<stop offset="1" stop-color="#9571F6"/>
</linearGradient>
<linearGradient id="paint7_linear" x1="152.364" y1="18.7445" x2="184.563" y2="18.7445" gradientUnits="userSpaceOnUse">
<stop stop-color="#FF9085"/>
<stop offset="1" stop-color="#FB6FBB"/>
</linearGradient>
<linearGradient id="paint8_linear" x1="177" y1="117.5" x2="256.998" y2="117.5" gradientUnits="userSpaceOnUse">
<stop stop-color="#FF9085"/>
<stop offset="1" stop-color="#FB6FBB"/>
</linearGradient>
<linearGradient id="paint9_linear" x1="177" y1="122.5" x2="256.998" y2="122.5" gradientUnits="userSpaceOnUse">
<stop stop-color="#FF9085"/>
<stop offset="1" stop-color="#FB6FBB"/>
</linearGradient>
<linearGradient id="paint10_linear" x1="214.001" y1="126" x2="291.998" y2="126" gradientUnits="userSpaceOnUse">
<stop stop-color="#FF9085"/>
<stop offset="1" stop-color="#FB6FBB"/>
</linearGradient>
<linearGradient id="paint11_linear" x1="220.194" y1="16.8476" x2="228.221" y2="102.926" gradientUnits="userSpaceOnUse">
<stop offset="0.00359712" stop-color="#E38DDD"/>
<stop offset="1" stop-color="#9571F6"/>
</linearGradient>
<linearGradient id="paint12_linear" x1="152.364" y1="109.529" x2="184.563" y2="109.529" gradientUnits="userSpaceOnUse">
<stop stop-color="#FF9085"/>
<stop offset="1" stop-color="#FB6FBB"/>
</linearGradient>
<linearGradient id="paint13_linear" x1="162.999" y1="63.9994" x2="243.999" y2="63.9994" gradientUnits="userSpaceOnUse">
<stop stop-color="#FF9085"/>
<stop offset="1" stop-color="#FB6FBB"/>
</linearGradient>
<linearGradient id="paint14_linear" x1="177" y1="72.9999" x2="256.998" y2="72.9999" gradientUnits="userSpaceOnUse">
<stop stop-color="#FF9085"/>
<stop offset="1" stop-color="#FB6FBB"/>
</linearGradient>
<linearGradient id="paint15_linear" x1="177" y1="77.5001" x2="256.998" y2="77.5001" gradientUnits="userSpaceOnUse">
<stop stop-color="#FF9085"/>
<stop offset="1" stop-color="#FB6FBB"/>
</linearGradient>
<linearGradient id="paint16_linear" x1="152.444" y1="82.3156" x2="181.505" y2="82.3156" gradientUnits="userSpaceOnUse">
<stop stop-color="#FF9085"/>
<stop offset="1" stop-color="#FB6FBB"/>
</linearGradient>
<linearGradient id="paint17_linear" x1="187.285" y1="-2.65683" x2="197.284" y2="101.328" gradientUnits="userSpaceOnUse">
<stop offset="0.00359712" stop-color="#E38DDD"/>
<stop offset="1" stop-color="#9571F6"/>
</linearGradient>
<linearGradient id="paint18_linear" x1="177" y1="95.5002" x2="250" y2="95.5002" gradientUnits="userSpaceOnUse">
<stop stop-color="#FF9085"/>
<stop offset="1" stop-color="#FB6FBB"/>
</linearGradient>
<linearGradient id="paint19_linear" x1="193.999" y1="100" x2="266.001" y2="100" gradientUnits="userSpaceOnUse">
<stop stop-color="#FF9085"/>
<stop offset="1" stop-color="#FB6FBB"/>
</linearGradient>
<linearGradient id="paint20_linear" x1="193.999" y1="104.001" x2="266.001" y2="104.001" gradientUnits="userSpaceOnUse">
<stop stop-color="#FF9085"/>
<stop offset="1" stop-color="#FB6FBB"/>
</linearGradient>
<linearGradient id="paint21_linear" x1="158.206" y1="-2.9023" x2="176.007" y2="105.599" gradientUnits="userSpaceOnUse">
<stop offset="0.00359712" stop-color="#E38DDD"/>
<stop offset="1" stop-color="#9571F6"/>
</linearGradient>
<linearGradient id="paint22_linear" x1="164.368" y1="74.2754" x2="155.909" y2="84.9169" gradientUnits="userSpaceOnUse">
<stop stop-color="#FFC444"/>
<stop offset="0.9964" stop-color="#F36F56"/>
</linearGradient>
<linearGradient id="paint23_linear" x1="127.308" y1="90.873" x2="121.549" y2="67.8366" gradientUnits="userSpaceOnUse">
<stop stop-color="#FFC444"/>
<stop offset="0.9964" stop-color="#F36F56"/>
</linearGradient>
<linearGradient id="paint24_linear" x1="121.809" y1="144.237" x2="118.764" y2="146.261" gradientUnits="userSpaceOnUse">
<stop stop-color="#444B8C"/>
<stop offset="0.9964" stop-color="#26264F"/>
</linearGradient>
<linearGradient id="paint25_linear" x1="118.863" y1="146.28" x2="119.529" y2="141.568" gradientUnits="userSpaceOnUse">
<stop stop-color="#FFC444"/>
<stop offset="0.9964" stop-color="#F36F56"/>
</linearGradient>
<linearGradient id="paint26_linear" x1="121.581" y1="143.893" x2="118.535" y2="145.917" gradientUnits="userSpaceOnUse">
<stop stop-color="#444B8C"/>
<stop offset="0.9964" stop-color="#26264F"/>
</linearGradient>
<linearGradient id="paint27_linear" x1="141.146" y1="145.748" x2="138.414" y2="148.178" gradientUnits="userSpaceOnUse">
<stop stop-color="#444B8C"/>
<stop offset="0.9964" stop-color="#26264F"/>
</linearGradient>
<linearGradient id="paint28_linear" x1="138.514" y1="148.183" x2="138.514" y2="143.424" gradientUnits="userSpaceOnUse">
<stop stop-color="#FFC444"/>
<stop offset="0.9964" stop-color="#F36F56"/>
</linearGradient>
<linearGradient id="paint29_linear" x1="150.254" y1="123.008" x2="114.674" y2="114.228" gradientUnits="userSpaceOnUse">
<stop stop-color="#FF9085"/>
<stop offset="1" stop-color="#FB6FBB"/>
</linearGradient>
<linearGradient id="paint30_linear" x1="114.691" y1="94.7259" x2="152.931" y2="68.1312" gradientUnits="userSpaceOnUse">
<stop stop-color="#FFC444"/>
<stop offset="0.9964" stop-color="#F36F56"/>
</linearGradient>
<linearGradient id="paint31_linear" x1="140.871" y1="145.439" x2="138.139" y2="147.869" gradientUnits="userSpaceOnUse">
<stop stop-color="#444B8C"/>
<stop offset="0.9964" stop-color="#26264F"/>
</linearGradient>
<linearGradient id="paint32_linear" x1="131.389" y1="68.0353" x2="137.071" y2="56.9385" gradientUnits="userSpaceOnUse">
<stop stop-color="#FFC444"/>
<stop offset="0.9964" stop-color="#F36F56"/>
</linearGradient>
<linearGradient id="paint33_linear" x1="137.835" y1="58.57" x2="123.04" y2="77.1838" gradientUnits="userSpaceOnUse">
<stop stop-color="#FFC444"/>
<stop offset="0.9964" stop-color="#F36F56"/>
</linearGradient>
<linearGradient id="paint34_linear" x1="115.091" y1="99.2368" x2="158.141" y2="69.2968" gradientUnits="userSpaceOnUse">
<stop stop-color="#FFC444"/>
<stop offset="0.9964" stop-color="#F36F56"/>
</linearGradient>
</defs>
</svg>
